<svg width="101" height="101" viewBox="0 0 101 101" fill="none" xmlns="http://www.w3.org/2000/svg">
<g clip-path="url(#clip0_592_1869)">
<path d="M99.1745 75.6077C96.2965 75.6377 93.4185 75.6077 90.5406 75.6077C90.12 75.6077 89.8976 75.5297 89.9698 75.062C89.9998 74.8955 89.9998 74.7249 89.9698 74.5582C89.8796 73.9586 90.0779 73.7907 90.6967 73.7967C93.3824 73.8327 96.0682 73.7967 98.7539 73.7967C99.9558 73.7967 99.9132 73.7967 99.9558 72.6393C99.9558 72.0875 99.8053 71.9737 99.2767 71.9796C96.5188 71.9796 93.761 71.9796 91.0031 71.9796C89.9757 71.9796 90.0178 71.9796 89.9577 70.9781C89.9577 70.3784 90.1259 70.2346 90.7147 70.2406C93.5687 70.2765 96.4227 70.2406 99.2767 70.2406C99.4869 70.2406 99.8776 70.3365 99.8776 70.1566C99.9736 69.6413 99.9736 69.1128 99.8776 68.5974C99.8113 68.3036 99.3668 68.4654 99.0964 68.4654C96.2665 68.4654 93.4306 68.4654 90.6006 68.4654C90.1139 68.4654 89.8736 68.3636 89.9577 67.8658C89.9847 67.7232 89.9847 67.5767 89.9577 67.4341C89.8556 66.8344 90.1259 66.7744 90.6367 66.7804C93.3464 66.7804 96.0441 66.7804 98.7659 66.7804C99.9677 66.7804 99.9014 66.7804 99.9677 65.581C99.9677 65.0113 99.7875 64.9153 99.2707 64.9214C96.5128 64.9214 93.755 64.9214 90.9972 64.9214C89.9878 64.9214 90.0238 64.9214 89.9818 63.8899C89.9818 63.3322 90.1079 63.1703 90.6847 63.1762C93.5867 63.2062 96.4888 63.1762 99.3968 63.1762C99.8113 63.1762 100.04 63.1103 99.9974 62.6366C99.9647 62.438 99.9647 62.2354 99.9974 62.0369C100.07 61.5212 99.9014 61.3472 99.3427 61.3533C96.5849 61.3892 93.8271 61.3533 91.0693 61.3533C90.0238 61.3533 90.0238 61.3533 90.0238 60.2798C90.0268 60.2559 90.0268 60.2318 90.0238 60.2079C89.9277 59.6742 90.1319 59.5242 90.6787 59.5302C93.3885 59.5302 96.0862 59.5302 98.814 59.5302C100.015 59.5302 99.9677 59.5302 100.015 58.3788C100.015 57.8811 99.9014 57.7371 99.4148 57.7432C96.5368 57.7432 93.6589 57.7432 90.7809 57.7791C90.0238 57.7791 90.0419 57.4434 90.0659 56.9276C90.0899 56.4119 89.8976 55.9801 90.7628 55.9981C93.6409 56.064 96.5248 55.9981 99.4028 56.034C99.8954 56.034 100.112 55.9081 100.003 55.3984C99.9796 55.2314 99.9796 55.0618 100.003 54.8946C100.093 54.331 99.8717 54.1811 99.3007 54.187C96.4708 54.187 93.6409 54.187 90.8109 54.187C90.2761 54.187 90.0178 54.1511 90.0118 53.4854C90.0058 52.8198 90.3663 52.8198 90.841 52.8258C93.6949 52.8258 96.5549 52.8258 99.4089 52.8258C99.8776 52.8258 100.076 52.7058 100.009 52.2261C99.9855 52.059 99.9855 51.8895 100.009 51.7224C100.105 51.1227 99.8657 50.9728 99.2707 50.9788C96.4107 51.0088 93.5567 50.9788 90.7027 51.0147C89.9817 51.0147 90.0479 50.6669 90.0358 50.1931C90.0238 49.7194 90.0358 49.3716 90.7208 49.3835C93.5988 49.4316 96.4768 49.3835 99.3608 49.4196C99.9132 49.4196 100.093 49.2636 100.009 48.742C99.9855 48.5991 99.9855 48.453 100.009 48.3102C100.112 47.7105 99.841 47.6086 99.3007 47.6145C96.4467 47.6145 93.5927 47.6145 90.7388 47.6145C90.138 47.6145 90.0358 47.4466 90.0238 46.8949C90.0117 46.3432 90.204 46.1932 90.7509 46.1993C93.6528 46.1993 96.5549 46.1993 99.4569 46.1993C99.9014 46.1993 100.058 46.0853 100.009 45.6416C99.9826 45.4747 99.9826 45.3047 100.009 45.1379C100.105 44.5382 99.8717 44.3822 99.2707 44.3942C96.5369 44.3942 93.803 44.3942 91.0693 44.3942C90.0358 44.3942 90.0839 44.3942 90.0238 43.3808C89.9878 42.7512 90.2101 42.6431 90.7869 42.6492C93.5927 42.6492 96.4047 42.6492 99.1986 42.6492C99.8895 42.6492 100.087 42.4333 99.9915 41.8036C99.9796 41.7101 99.9796 41.6153 99.9915 41.5217C100.076 40.976 99.8895 40.7961 99.3067 40.8021C96.4768 40.8021 93.6409 40.8021 90.8109 40.8381C90.12 40.8381 89.9277 40.6222 90.0298 39.9986C90.0419 39.905 90.0419 39.8103 90.0298 39.7167C89.9397 39.189 90.1259 39.0271 90.6787 39.0331C93.5567 39.0331 96.4408 39.0331 99.3187 39.0331C99.523 39.0331 99.8538 39.135 99.9192 38.9431C100.061 38.4329 100.061 37.8941 99.9192 37.384C99.8479 37.0482 99.4269 37.222 99.1685 37.222C96.4527 37.222 93.761 37.222 91.0332 37.222C89.9937 37.222 90.0238 37.222 89.9878 36.1487C89.9878 35.6149 90.1079 35.4709 90.6547 35.477C93.3644 35.477 96.0622 35.477 98.79 35.477C99.9915 35.477 99.9321 35.477 99.9915 34.3315C99.9915 33.7319 99.7875 33.6839 99.2947 33.6839C96.4167 33.6839 93.5326 33.6839 90.6547 33.6839C89.7354 33.6839 90.0538 33.1202 90.0178 32.6944C89.9818 32.2687 90.0538 31.9448 90.6787 31.9568C93.5808 31.9928 96.4827 31.9568 99.3909 31.9568C99.8538 31.9568 100.052 31.8429 99.9915 31.3572C99.9677 31.19 99.9677 31.0205 99.9915 30.8534C100.087 30.2537 99.841 30.1038 99.2466 30.1098C96.4167 30.1098 93.5868 30.1098 90.7568 30.1458C90.0298 30.1458 89.9817 29.8639 90.0238 29.3183C90.0659 28.7725 89.8616 28.3588 90.7327 28.3827C93.5868 28.4487 96.4408 28.3827 99.2947 28.3827C99.505 28.3827 99.8291 28.4967 99.8954 28.3107C100.055 27.8095 100.074 27.2746 99.9499 26.7636C99.8954 26.4517 99.499 26.6137 99.2586 26.6137C96.3807 26.6137 93.5026 26.6137 90.6246 26.6137C90.174 26.6137 89.9397 26.5297 90.0238 26.014C90.0478 25.8731 90.0478 25.7291 90.0238 25.5882C89.9277 24.9885 90.12 24.7726 90.7869 24.7846C93.6409 24.8266 96.4948 24.7846 99.3488 24.7846C99.8172 24.7846 100.028 24.7127 100.015 24.185C100.015 22.9856 100.015 22.9856 98.814 22.9856H97.7326C95.3292 22.9856 92.9799 22.9856 90.6066 22.9856C90.1319 22.9856 90.0058 22.8537 90.0058 22.3859C90.0058 21.2405 90.0058 21.2405 91.1173 21.2405C93.8751 21.2405 96.639 21.2405 99.3968 21.2405C99.8657 21.2405 100.052 21.1205 99.9974 20.6408C99.9707 20.474 99.9707 20.3039 99.9974 20.1371C100.093 19.5374 99.8231 19.3935 99.2406 19.3994C96.3626 19.4294 93.4846 19.3994 90.6006 19.3994C90.156 19.3994 89.9998 19.2735 89.9156 18.7997C89.1345 14.4821 86.2206 11.6036 81.9366 10.878C81.3717 10.788 81.3357 10.5661 81.3357 10.1044C81.3357 7.20191 81.3357 4.30547 81.3357 1.40301C81.3357 0.803327 81.1614 0.623402 80.6087 0.707358C80.5131 0.722304 80.4159 0.722304 80.3204 0.707358C79.7195 0.611408 79.4731 0.803305 79.4851 1.49294C79.5332 4.25148 79.4851 7.01001 79.4851 9.76855C79.4851 10.788 79.4851 10.7401 78.4637 10.8C77.8209 10.836 77.7308 10.5961 77.7367 10.0324C77.7367 7.12995 77.7367 4.22751 77.7367 1.32505C77.7367 1.13915 77.7367 0.815303 77.6767 0.785319C77.172 0.641546 76.6399 0.623039 76.1265 0.731367C75.784 0.779343 75.9462 1.1751 75.9462 1.40898C75.9462 4.31144 75.9462 7.21391 75.9462 10.1164C75.9462 10.6501 75.8081 10.872 75.2613 10.788C75.1181 10.764 74.9718 10.764 74.8287 10.788C74.2279 10.89 74.1257 10.6201 74.1317 10.0744C74.1317 7.33984 74.1317 4.6053 74.1317 1.87674C74.1317 0.67738 74.1317 0.725355 72.9781 0.67738C72.4854 0.67738 72.3293 0.791312 72.3352 1.30704C72.3352 4.11355 72.3352 6.92007 72.3352 9.7026C72.3352 10.902 72.5395 10.7041 71.2598 10.7521C70.755 10.7521 70.6108 10.6261 70.6108 10.1164C70.6108 7.35784 70.6108 4.59931 70.6108 1.84676C70.6108 0.647403 70.6108 0.689381 69.4512 0.647403C68.9165 0.647403 68.7722 0.773334 68.7783 1.31904C68.7783 4.24549 68.7783 7.17195 68.7783 10.0984C68.7783 10.3023 68.8864 10.6442 68.6641 10.6981C68.1964 10.7941 67.7139 10.7941 67.2462 10.6981C66.9277 10.6261 67.096 10.1943 67.096 9.93048C67.096 7.07599 67.096 4.22152 67.096 1.36703C67.096 0.767348 66.9277 0.593425 66.3809 0.67738C66.2617 0.698338 66.1397 0.698338 66.0204 0.67738C65.4197 0.563441 65.2814 0.833286 65.2874 1.41498C65.2874 4.29345 65.2875 7.17194 65.3235 10.0504C65.3235 10.812 64.975 10.77 64.4643 10.758C63.9536 10.746 63.527 10.8779 63.545 10.0384C63.6111 7.11796 63.545 4.19151 63.581 1.26506C63.581 0.791308 63.4549 0.59941 62.9802 0.665375C62.8128 0.688999 62.6429 0.688999 62.4755 0.665375C61.8747 0.569426 61.7245 0.821292 61.7304 1.41498C61.7666 4.16752 61.7304 6.92608 61.7304 9.68463C61.7304 10.7521 61.7304 10.7101 60.673 10.7641C60.0301 10.8 59.94 10.5601 59.946 9.99643C59.9761 7.09397 59.946 4.19153 59.946 1.28907C59.946 0.779338 59.8078 0.593436 59.3092 0.689385C59.1437 0.713335 58.9758 0.713335 58.8104 0.689385C58.2096 0.58744 58.1075 0.869261 58.1075 1.40898C58.1375 4.14353 58.1075 6.87811 58.1075 9.60666C58.1075 10.806 58.1075 10.806 56.8517 10.776C56.4672 10.776 56.341 10.6381 56.371 10.2723C56.401 9.90649 56.371 9.67262 56.371 9.3368C56.371 6.72218 56.371 4.10756 56.371 1.49294C56.371 0.839285 56.2148 0.635403 55.5539 0.67738C54.5745 0.737349 54.5745 0.677364 54.5745 1.67283C54.5745 4.50334 54.5745 7.33185 54.5745 10.1584C54.5745 10.3563 54.6827 10.6021 54.4364 10.758C54.3108 10.8325 54.1678 10.8723 54.0217 10.8734C53.8757 10.8745 53.732 10.8367 53.6055 10.7641C53.4789 10.6915 53.3739 10.5865 53.3014 10.4601C53.2289 10.3336 53.1913 10.1901 53.1926 10.0444C53.1926 7.11797 53.1926 4.19151 53.1926 1.27106C53.1926 0.845285 53.1145 0.629392 52.6459 0.701355C52.4788 0.728343 52.3084 0.728343 52.1411 0.701355C51.5403 0.605405 51.3781 0.803308 51.3841 1.42098C51.4262 4.29946 51.3841 7.17795 51.4201 10.0564C51.4201 10.6561 51.2399 10.836 50.6571 10.7941C50.1644 10.7521 49.7798 10.854 49.7919 10.0804C49.852 7.17793 49.7919 4.27546 49.7919 1.373C49.7919 1.1691 49.9 0.833281 49.7018 0.773313C49.1918 0.638568 48.6556 0.638568 48.1456 0.773313C47.8031 0.857269 47.9834 1.27106 47.9774 1.53492C47.9774 4.4074 47.9774 7.28588 47.9774 10.1644C47.9774 10.3862 48.1456 10.7041 47.731 10.806C46.9259 10.9979 46.6375 10.806 46.6375 9.99043C46.6375 7.11195 46.6375 4.23351 46.6375 1.36103C46.6375 0.857293 46.5113 0.647406 46.0006 0.725365C45.8572 0.746368 45.7114 0.746368 45.5681 0.725365C44.9311 0.611426 44.7749 0.863279 44.787 1.49894C44.823 4.37742 44.787 7.25591 44.787 10.1344C44.787 10.3383 44.8951 10.6561 44.6908 10.7341C44.2058 10.8719 43.6918 10.8719 43.2068 10.7341C42.9064 10.6681 43.0625 10.2723 43.0625 10.0265C43.0625 7.12998 43.0625 4.22751 43.0625 1.32505C43.0625 0.815317 42.9244 0.629416 42.4257 0.725365C42.2825 0.749408 42.1363 0.749408 41.9931 0.725365C41.3922 0.617423 41.254 0.881271 41.26 1.46296C41.26 4.36542 41.26 7.2679 41.26 10.1704C41.26 10.6741 41.1279 10.878 40.6172 10.806C40.476 10.7821 40.3317 10.7821 40.1905 10.806C39.5897 10.8959 39.4155 10.686 39.4215 10.0744C39.4576 7.36383 39.4215 4.67725 39.4215 1.94271C39.4215 0.659381 39.4215 0.677379 38.1057 0.71336C37.7091 0.71336 37.6189 0.857299 37.637 1.21711C37.637 1.81679 37.637 2.41648 37.637 3.01615V9.78056C37.637 10.812 37.637 10.782 36.6156 10.818C36.0688 10.818 35.8826 10.7101 35.8886 10.1224C35.9246 7.33985 35.8886 4.55733 35.8886 1.77481C35.8886 0.731362 35.8886 0.767337 34.8071 0.719362C34.2063 0.719362 34.038 0.839287 34.044 1.45696C34.08 4.35942 34.044 7.2619 34.044 10.1644C34.044 10.3623 34.1522 10.7101 33.9359 10.7641C33.4681 10.86 32.9857 10.86 32.5179 10.7641C32.2055 10.6921 32.3677 10.2603 32.3677 9.99043C32.3677 7.13594 32.3677 4.28747 32.3677 1.43299C32.3677 0.833303 32.1875 0.659381 31.6406 0.743337C31.5232 0.760828 31.4037 0.760828 31.2862 0.743337C30.6854 0.635394 30.5352 0.875286 30.5411 1.47497C30.5772 4.37743 30.5411 7.2799 30.5411 10.1764C30.5411 10.3803 30.6493 10.7281 30.433 10.776C29.9632 10.872 29.4788 10.872 29.009 10.776C28.6245 10.6861 28.8348 10.2423 28.8348 9.96646C28.8348 7.08798 28.8348 4.20953 28.8348 1.33105C28.8348 0.881289 28.7386 0.659406 28.2339 0.731367C28.0666 0.754991 27.8967 0.754991 27.7292 0.731367C27.1284 0.635419 26.9842 0.893282 26.9902 1.48097C27.0202 4.23951 26.9902 6.99804 26.9902 9.75058C26.9902 10.9499 27.1584 10.7521 25.9147 10.824C25.2779 10.86 25.1878 10.6201 25.1937 10.0564C25.1937 7.12997 25.1937 4.20351 25.1937 1.27706C25.1937 0.845291 25.1036 0.647395 24.647 0.71336C24.448 0.74592 24.2451 0.74592 24.0461 0.71336C23.5234 0.635401 23.3552 0.821288 23.3611 1.373C23.3611 4.17951 23.3611 6.98602 23.3611 9.76855C23.3611 10.9679 23.5354 10.7401 22.3278 10.8C21.757 10.83 21.6068 10.6501 21.6127 10.0864C21.6428 7.35185 21.6127 4.6173 21.6127 1.88274C21.6127 0.683383 21.6127 0.743352 20.4472 0.683383C19.8823 0.683383 19.7862 0.857299 19.7922 1.36703C19.7922 4.24551 19.7922 7.12396 19.7922 10.0024C19.7922 10.6021 19.624 10.8359 19.0172 10.9379C17.0915 11.2771 15.3217 12.2126 13.9585 13.6119C12.5955 15.0111 11.7082 16.8031 11.4226 18.7338C11.3505 19.2195 11.1763 19.3335 10.6956 19.3335C7.84159 19.3335 4.98763 19.3335 2.13367 19.3335C1.0822 19.3335 1.11826 19.3335 1.07019 20.4129C1.07019 21.0126 1.2204 21.1685 1.81522 21.1625C4.77133 21.1325 7.72144 21.1625 10.6715 21.1325C11.1822 21.1325 11.3685 21.2645 11.2724 21.7682C11.2484 21.9091 11.2484 22.0531 11.2724 22.194C11.3745 22.7937 11.1162 22.8956 10.5694 22.8896C7.6193 22.8896 4.6692 22.8896 1.7191 22.8896C1.51481 22.8896 1.15431 22.7877 1.11826 22.9795C1.02817 23.4954 1.02817 24.0229 1.11826 24.5387C1.18435 24.8326 1.62296 24.6827 1.89333 24.6827C4.8214 24.6827 7.74747 24.6827 10.6715 24.6827C11.1222 24.6827 11.3565 24.7666 11.2724 25.2823C11.2423 25.4489 11.2423 25.6195 11.2724 25.7861C11.3866 26.3858 11.0921 26.5178 10.5213 26.5117C7.59526 26.4817 4.6692 26.5117 1.74312 26.5117C1.53283 26.5117 1.21439 26.3978 1.14229 26.6016C0.999279 27.0833 0.984786 27.5939 1.10024 28.0829C1.16032 28.4727 1.5809 28.2807 1.83325 28.2868C4.75931 28.2868 7.68539 28.2868 10.6174 28.2868C11.1702 28.2868 11.3565 28.4427 11.2724 28.9704C11.2482 29.1133 11.2482 29.2592 11.2724 29.4022C11.3565 29.9119 11.1402 30.0379 10.6415 30.0019C8.96516 30.0019 7.28283 30.0019 5.6065 30.0019H2.1517C1.06419 30.0019 1.09423 30.0018 1.05818 31.1173C1.05818 31.675 1.17834 31.8429 1.76115 31.8369C4.71126 31.8069 7.66135 31.8369 10.6114 31.8369C10.8217 31.8369 11.1702 31.7349 11.2123 31.9269C11.2992 32.3966 11.2992 32.8783 11.2123 33.3481C11.1402 33.7019 10.7196 33.516 10.4672 33.522C7.53518 33.522 4.60911 33.522 1.68304 33.522C1.18435 33.522 0.974062 33.6599 1.05217 34.1637C1.07615 34.3066 1.07615 34.4525 1.05217 34.5954C0.950028 35.1951 1.2204 35.3391 1.80321 35.333C4.72929 35.333 7.65535 35.333 10.5814 35.333C10.7917 35.333 11.1462 35.231 11.1822 35.4109C11.2782 35.9011 11.2904 36.404 11.2183 36.8983C11.1702 37.2161 10.7676 37.0482 10.5333 37.0482C7.58325 37.0482 4.63314 37.0482 1.68304 37.0482C1.18435 37.0482 0.968048 37.1681 1.04616 37.6838C1.07325 37.8244 1.07325 37.969 1.04616 38.1096C0.931998 38.7572 1.20838 38.9011 1.83325 38.8951C4.73529 38.8592 7.63732 38.8951 10.5393 38.8951C11.1402 38.8951 11.3565 39.075 11.2544 39.6507C11.2454 39.7224 11.2454 39.7949 11.2544 39.8666C11.3565 40.4663 11.1642 40.7062 10.4733 40.7002C7.57123 40.6522 4.6692 40.7002 1.76716 40.7002C1.55687 40.7002 1.19637 40.7002 1.16633 40.7661C1.00341 41.2662 0.980559 41.8012 1.10024 42.3133C1.14831 42.6611 1.53885 42.5052 1.77317 42.5052C4.72327 42.5052 7.67337 42.5052 10.6235 42.5052C11.1042 42.5052 11.3505 42.5892 11.2664 43.1049C11.2424 43.2458 11.2424 43.3898 11.2664 43.5308C11.3565 44.0944 11.1402 44.2504 10.5694 44.2443C7.64333 44.2443 4.71126 44.2443 1.78519 44.2084C0.956037 44.2084 1.05818 44.6102 1.05818 45.1258C1.05818 45.6416 0.962046 46.0554 1.78519 46.0374C4.73529 45.9774 7.68539 46.0374 10.6355 46.0374C10.8397 46.0374 11.1642 45.9174 11.2364 46.1514C11.3205 46.5244 11.3205 46.9116 11.2364 47.2847C11.1642 47.5545 10.8158 47.4166 10.5934 47.4166C7.66736 47.4166 4.74129 47.4166 1.81522 47.4166C1.21439 47.4166 0.986077 47.5906 1.08822 48.1783C1.10023 48.2719 1.10023 48.3665 1.08822 48.4601C0.986077 49.0598 1.20237 49.2277 1.81522 49.2217C4.76532 49.1857 7.71544 49.2217 10.6656 49.1857C11.4586 49.1857 11.2664 49.6234 11.2664 50.0432C11.2664 50.463 11.3145 50.8228 10.6295 50.8168C7.82358 50.7689 5.01768 50.8168 2.21779 50.8168C1.05818 50.8168 1.08221 50.8168 1.05818 52.0162C1.05818 52.5139 1.19036 52.6638 1.69506 52.6579C4.69924 52.6579 7.64934 52.6579 10.6235 52.6579C11.1822 52.6579 11.2964 52.8137 11.2844 53.3355C11.2724 53.8572 11.2303 54.0431 10.6415 54.0371C7.85962 53.9951 5.07175 54.0371 2.28989 54.0371C1.04015 54.0371 1.08822 54.0371 1.05217 55.2965C1.05217 55.8122 1.25645 55.8961 1.68906 55.8961C3.17312 55.8961 4.65718 55.8961 6.14125 55.8961C7.62531 55.8961 9.01924 55.8961 10.4612 55.8961C11.0921 55.8961 11.3325 56.0221 11.2844 56.7057C11.2183 57.6412 11.2844 57.6472 10.3231 57.6472H2.11564C1.06418 57.6472 1.10625 57.6472 1.05217 58.7087C1.01612 59.3503 1.26847 59.4403 1.82724 59.4342C4.77734 59.4342 7.72745 59.4342 10.6836 59.4342C11.1582 59.4342 11.2844 59.5602 11.2844 60.034C11.2844 61.2334 11.2844 61.2334 10.0827 61.2334H8.88105C6.47771 61.2334 4.07437 61.2334 1.67103 61.2334C1.21439 61.2334 0.992087 61.3293 1.07019 61.833C1.10025 61.9996 1.10025 62.1702 1.07019 62.3367C0.98007 62.9364 1.21439 63.0504 1.77917 63.0444C4.60911 63.0144 7.43904 63.0444 10.269 63.0444C11.2844 63.0444 11.2364 63.0444 11.2964 64.0698C11.3325 64.7115 11.0981 64.7954 10.5333 64.7894C7.58325 64.7894 4.62714 64.7894 1.67704 64.7894C1.20838 64.7894 1.01011 64.9153 1.0762 65.3891C1.10324 65.5559 1.10324 65.726 1.0762 65.8929C0.980066 66.4926 1.23843 66.6364 1.82724 66.6305C4.7533 66.6305 7.67938 66.6305 10.6055 66.6305C11.3024 66.6305 11.3204 66.9183 11.2844 67.428C11.2483 67.9377 11.4467 68.3815 10.5754 68.3636C7.6253 68.2976 4.67521 68.3636 1.72511 68.3275C1.24443 68.3275 0.998092 68.4295 1.0762 68.9572C1.10019 69.1223 1.10019 69.2899 1.0762 69.455C0.992083 69.9827 1.17834 70.1447 1.73111 70.1386C4.68121 70.1086 7.63132 70.1386 10.5814 70.1027C11.3685 70.1027 11.2904 70.4684 11.2783 70.9542C11.2664 71.4399 11.4406 71.8957 10.5754 71.8717C7.65534 71.8058 4.72327 71.8717 1.7972 71.8297C1.19637 71.8297 0.974058 72.0096 1.0762 72.5913C1.09424 72.6865 1.09424 72.7841 1.0762 72.8792C0.962041 73.5149 1.22041 73.6767 1.85128 73.6648C4.75331 73.6288 7.66136 73.6648 10.5634 73.6348C11.1642 73.6348 11.3805 73.8147 11.2844 74.3903C11.2603 74.5091 11.2603 74.6315 11.2844 74.7502C11.3866 75.3498 11.1281 75.4518 10.5814 75.4458C7.75148 75.4458 4.91554 75.4458 2.08561 75.4458C1.0702 75.4458 1.11826 75.4458 1.05217 76.4653C1.01612 77.1189 1.23242 77.2569 1.85128 77.2449C4.75331 77.2449 7.65535 77.2449 10.5574 77.2449C11.1582 77.2449 11.3805 77.4248 11.2844 78.0065C11.2694 78.1018 11.2694 78.1989 11.2844 78.2943C11.3685 78.834 11.1943 79.0259 10.6055 79.0139C7.82357 79.0139 5.04171 79.0139 2.25985 79.0139C1.05818 79.0139 1.11225 79.0139 1.05818 80.2133C1.05818 80.813 1.25045 80.867 1.75514 80.8609C4.75932 80.8609 7.70341 80.8609 10.6775 80.8609C11.1402 80.8609 11.3384 80.9569 11.4105 81.4606C11.694 83.4297 12.6017 85.2566 14.0008 86.6735C15.3999 88.0903 17.2168 89.0229 19.1854 89.3345C19.708 89.4124 19.7862 89.6103 19.7862 90.06C19.7862 92.8366 19.7862 95.6192 19.7862 98.4016C19.7862 99.6011 19.7862 99.5467 20.9878 99.5655C21.4866 99.5655 21.6428 99.4392 21.6368 98.9294C21.6368 96.1228 21.6368 93.3164 21.6368 90.5338C21.6368 89.4964 21.6368 89.5384 22.6462 89.4903C23.2471 89.4903 23.3973 89.6463 23.3912 90.246C23.3912 93.0465 23.3912 95.853 23.3912 98.6415C23.3912 99.3671 23.5354 99.613 24.3105 99.6012C25.0856 99.5893 25.3199 99.4451 25.1997 98.7015C25.1727 98.3662 25.1727 98.0293 25.1997 97.694V90.6417C25.1997 89.5503 25.1997 89.5863 26.2873 89.5443C26.8581 89.5443 27.0082 89.6883 27.0022 90.2519C26.9722 93.1784 27.0022 96.1049 27.0022 99.0313C27.0022 99.4751 27.0924 99.721 27.6031 99.6309C27.7682 99.6041 27.9367 99.6041 28.1017 99.6309C28.7026 99.7447 28.8408 99.4571 28.8348 98.8814C28.8047 95.979 28.8348 93.0765 28.8348 90.174C28.8348 89.9761 28.7267 89.6283 28.9429 89.5743C29.4373 89.4813 29.9447 89.4813 30.439 89.5743C30.6974 89.6402 30.5472 90.0961 30.5472 90.3659C30.5472 93.0765 30.5472 95.763 30.5472 98.4976C30.5472 99.6011 30.5472 99.5714 31.6286 99.613C32.1875 99.613 32.3557 99.481 32.3496 98.8994C32.3496 96.0269 32.3496 93.1485 32.3496 90.2699C32.3496 89.5803 32.578 89.4664 33.1668 89.5084C33.6594 89.5503 34.0981 89.3885 34.08 90.234C34.014 93.1304 34.08 96.0329 34.044 98.9353C34.044 99.4811 34.1942 99.6853 34.7229 99.6012C34.8662 99.5774 35.0124 99.5774 35.1556 99.6012C35.7564 99.7031 35.9006 99.4211 35.8946 98.8454C35.8645 95.967 35.8946 93.0885 35.8586 90.2099C35.8586 89.4244 36.2371 89.5203 36.7178 89.5144C37.1984 89.5084 37.655 89.4064 37.637 90.2399C37.5709 93.1424 37.637 96.0449 37.6009 98.9413C37.6009 99.4871 37.7391 99.6912 38.2799 99.6071C38.4208 99.5804 38.5656 99.5804 38.7065 99.6071C39.3074 99.7091 39.4094 99.4211 39.4035 98.8874C39.4035 96.1528 39.4035 93.4183 39.4035 90.6837C39.4035 89.4844 39.4035 89.5444 40.569 89.4844C41.1699 89.4844 41.23 89.6883 41.224 90.186C41.224 92.9925 41.224 95.7991 41.224 98.5815C41.224 99.5586 41.224 99.5586 42.2274 99.5526H42.2994C42.8463 99.6487 43.0265 99.451 43.0205 98.8694C42.9844 96.0869 43.0205 93.3043 43.0205 90.5218C43.0205 89.4724 43.0205 89.5023 44.0899 89.4664C44.6247 89.4664 44.7749 89.5803 44.769 90.132C44.7389 93.0285 44.769 95.9309 44.769 98.8334C44.769 99.0433 44.769 99.3971 44.835 99.4331C45.3323 99.6021 45.8673 99.6299 46.3792 99.511C46.7457 99.4751 46.5834 99.0853 46.5834 98.8574C46.5834 95.9309 46.5834 93.0045 46.5834 90.0781C46.5834 89.8742 46.4273 89.5923 46.7757 89.4784C47.5027 89.2265 47.9233 89.5203 47.9233 90.288C47.9233 93.1664 47.9233 96.0389 47.9233 98.9174C47.9233 99.4271 48.0675 99.6249 48.5662 99.5467C48.7096 99.5259 48.8554 99.5259 48.9988 99.5467C49.6657 99.6734 49.7798 99.3731 49.7739 98.7614C49.7438 95.883 49.7739 93.0045 49.7739 90.126C49.7739 89.9161 49.6237 89.5623 49.9241 89.5264C50.3442 89.4212 50.7838 89.4212 51.2039 89.5264C51.5284 89.6343 51.3481 90.0781 51.3481 90.3659C51.3481 93.2203 51.3481 96.0749 51.3481 98.9234C51.3481 99.4391 51.4983 99.6249 51.9909 99.5229C52.0863 99.5051 52.1841 99.5051 52.2794 99.5229C52.9463 99.6368 53.1746 99.4151 53.1626 98.6955C53.1145 95.889 53.1626 93.0825 53.1325 90.2999C53.1325 89.7722 53.1325 89.4244 53.8596 89.4424C54.5866 89.4604 54.5445 89.7542 54.5385 90.264C54.5385 93.1365 54.5385 96.0149 54.5385 98.8933C54.5385 99.4391 54.6827 99.6427 55.2175 99.5526C55.3587 99.5289 55.5028 99.5289 55.644 99.5526C56.2449 99.6546 56.347 99.3731 56.341 98.8334C56.341 96.0989 56.341 93.3643 56.341 90.6297C56.341 89.4304 56.341 89.4664 57.5426 89.4304C57.9753 89.4304 58.1435 89.5264 58.1435 89.9881C58.1435 90.4498 58.1435 90.9476 58.1435 91.4274C58.1435 93.8981 58.1435 96.3627 58.1435 98.8334C58.1435 99.3431 58.2336 99.619 58.8044 99.5229C58.9456 99.4992 59.0899 99.4992 59.231 99.5229C59.8318 99.6249 59.9881 99.3851 59.982 98.7854C59.946 95.907 59.982 93.0285 59.952 90.156C59.952 89.5264 60.1322 89.3465 60.7091 89.4424C60.8286 89.4605 60.9501 89.4605 61.0696 89.4424C61.5923 89.3524 61.7545 89.5384 61.7485 90.09C61.7185 92.8486 61.7485 95.6072 61.7485 98.3657C61.7485 99.5655 61.7485 99.4991 62.9502 99.5655C63.551 99.5655 63.6111 99.3731 63.6051 98.8634C63.6051 95.9669 63.6051 93.0645 63.5691 90.162C63.5691 89.3764 63.9415 89.4544 64.4283 89.4664C64.9149 89.4784 65.3715 89.3104 65.3475 90.174C65.2814 93.0945 65.3475 96.0269 65.3114 98.9474C65.3114 99.4151 65.4316 99.613 65.9123 99.5467C66.0775 99.52 66.2459 99.52 66.411 99.5467C67.0118 99.6427 67.126 99.3851 67.12 98.8334C67.12 95.9549 67.12 93.0765 67.0839 90.198C67.0839 89.3944 67.4565 89.4603 67.9911 89.4544C68.5259 89.4484 68.8384 89.4544 68.8264 90.186C68.7663 93.0824 68.8264 95.9849 68.7903 98.8874C68.7903 99.4391 68.9465 99.6309 69.4693 99.5467C69.6124 99.5229 69.7587 99.5229 69.9018 99.5467C70.5027 99.6546 70.6409 99.3611 70.6349 98.7854C70.6349 96.0089 70.6349 93.2264 70.6349 90.4439C70.6349 89.4603 70.6349 89.5023 71.6203 89.4544C72.221 89.4544 72.3712 89.6163 72.3653 90.2099C72.3653 93.1124 72.3653 96.0149 72.3653 98.9174C72.3653 99.4211 72.5034 99.619 73.0082 99.5467C73.1753 99.52 73.3457 99.52 73.5128 99.5467C74.0716 99.6427 74.1798 99.3971 74.1738 98.8754C74.1738 96.1169 74.1738 93.3584 74.1738 90.5997C74.1738 89.4484 74.1738 89.4664 75.3754 89.4544C75.832 89.4544 75.9763 89.5623 75.9763 90.0541C75.9763 91.2534 75.9763 92.5007 75.9763 93.7241V98.4676C75.9763 99.5586 75.9763 99.5289 77.0818 99.5714C77.6406 99.5714 77.8028 99.4391 77.7968 98.8694C77.7968 95.9429 77.7968 93.0165 77.7968 90.09C77.7968 89.8921 77.6826 89.5503 77.9109 89.4903C78.405 89.3943 78.913 89.3943 79.4071 89.4903C79.6714 89.5563 79.5152 90.0061 79.5213 90.2819C79.5213 93.1544 79.5213 96.0329 79.5213 98.9113C79.5213 99.3672 79.6113 99.5952 80.122 99.511C80.2874 99.4871 80.4554 99.4871 80.6208 99.511C81.2215 99.6071 81.3778 99.3551 81.3718 98.7614C81.3418 95.865 81.3718 92.9625 81.3718 90.06C81.3718 89.5563 81.48 89.3704 82.0207 89.3045C83.9454 89.0146 85.7313 88.1317 87.1285 86.779C88.5258 85.4264 89.4645 83.6718 89.8135 81.7604C89.9097 81.1128 90.1079 80.9209 90.7809 80.9329C93.6348 80.9749 96.4888 80.9329 99.3488 80.9629C99.7994 80.9629 100.015 80.8609 99.9499 80.3632C99.9192 80.1967 99.9192 80.0261 99.9499 79.8594C100.046 79.2597 99.7875 79.1098 99.1986 79.1159C96.4647 79.1518 93.7249 79.1159 90.9912 79.1159C89.9757 79.1159 90.0058 79.1159 89.9698 78.0844C89.9698 77.5387 90.0839 77.3528 90.6667 77.3588C93.5207 77.3948 96.3807 77.3588 99.2346 77.3588C99.835 77.3588 100.058 77.1849 99.9558 76.6032C99.941 76.5078 99.941 76.4107 99.9558 76.3154C100.082 75.7217 99.7875 75.6017 99.1745 75.6077ZM88.1793 80.0513C88.1977 81.0749 88.0074 82.0915 87.62 83.0394C87.2325 83.9873 86.6559 84.8466 85.9253 85.5652C85.1947 86.2837 84.3254 86.8464 83.3701 87.2191C82.4148 87.5918 81.3935 87.7668 80.3684 87.7333H21.2763C20.241 87.7684 19.2096 87.5907 18.2461 87.2114C17.2825 86.8321 16.4074 86.2591 15.6749 85.5281C14.9425 84.7971 14.3683 83.9235 13.9883 82.9618C13.6082 82.0001 13.4302 80.9706 13.4654 79.9374C13.4654 70.0786 13.4654 60.2219 13.4654 50.3671C13.4654 40.5122 13.4654 30.6794 13.4654 20.8686C13.4122 19.1165 13.9712 17.4002 15.0465 16.0141C16.1218 14.6279 17.6466 13.6581 19.3596 13.2707C19.9893 13.1211 20.635 13.0485 21.2823 13.0549H80.3744C81.4008 13.0263 82.4223 13.2057 83.3773 13.5821C84.3323 13.9585 85.2011 14.5241 85.9311 15.2449C86.661 15.9656 87.2371 16.8265 87.6245 17.7755C88.012 18.7246 88.2027 19.7421 88.1852 20.7668C88.2013 40.5322 88.1993 60.2939 88.1793 80.0513Z" fill="black"/>
<path d="M76.9799 15.5016H24.6532C23.981 15.4919 23.3097 15.5583 22.6525 15.6995C20.7166 16.0947 18.982 17.1573 17.7527 18.7012C16.5233 20.2451 15.8777 22.1716 15.9291 24.143C15.9291 32.8983 15.9291 41.6517 15.9291 50.4031C15.9291 59.1544 15.9291 67.8818 15.9291 76.5852C15.9291 81.6464 19.5882 85.2865 24.6412 85.2865H76.9619C82.0629 85.2865 85.7401 81.6464 85.7401 76.5612C85.7401 59.1264 85.7401 41.6937 85.7401 24.263C85.7793 23.1034 85.5797 21.948 85.1535 20.8685C84.7274 19.789 84.0838 18.8083 83.2626 17.987C82.4416 17.1658 81.4603 16.5215 80.3796 16.094C79.2989 15.6664 78.1418 15.4648 76.9799 15.5016ZM83.9195 76.4233C83.9195 80.7169 81.1016 83.5174 76.7936 83.5174H24.8575C20.5675 83.5174 17.7436 80.6869 17.7436 76.3992V24.2509C17.6853 22.6426 18.2133 21.0677 19.2298 19.8183C20.2462 18.5689 21.6822 17.7298 23.2713 17.4565C23.7919 17.3754 24.3191 17.3453 24.8454 17.3666H50.8976C59.5617 17.3666 68.2197 17.4385 76.8777 17.3365C77.8155 17.3186 78.7473 17.4899 79.6172 17.8403C80.487 18.1906 81.277 18.7127 81.9397 19.3752C82.6024 20.0377 83.1241 20.827 83.4736 21.6958C83.8231 22.5646 83.9932 23.4949 83.9736 24.4308C83.8834 41.7376 83.9255 59.0745 83.9195 76.4233Z" fill="black"/>
<path d="M76.6432 43.7342C76.4329 43.6323 76.2466 43.4643 76.0423 43.3384C75.6157 43.0806 75.4415 42.8107 75.826 42.3249C76.119 41.8901 76.3571 41.4208 76.535 40.9277C78.3375 36.4121 76.3307 31.9685 71.7643 30.5113C70.6681 30.153 69.5161 29.9944 68.3636 30.0435C68.1784 30.0727 67.9888 30.0334 67.8306 29.9329C67.6724 29.8324 67.5563 29.6776 67.5044 29.4978C67.1199 28.5982 66.6753 27.6987 66.2667 26.8351C65.8935 26.014 65.3356 25.2898 64.6364 24.7188C63.9372 24.1478 63.1154 23.7454 62.2351 23.543C61.0641 23.2113 59.8395 23.1114 58.6301 23.2491C57.1436 23.4108 55.7441 24.0298 54.6257 25.0204C53.5072 26.011 52.725 27.3242 52.3874 28.7781C51.9465 30.8891 51.7171 33.0385 51.7025 35.1947C51.5342 40.4959 51.8467 45.7851 51.7565 51.0863C51.7565 52.5195 51.7565 53.9588 51.7565 55.398C51.6844 60.0936 51.4982 64.795 51.9909 69.4785C52.1832 71.3616 52.4596 73.2026 53.7934 74.7377C57.5546 79.0135 64.7646 78.1919 66.8555 72.8067C67.0778 72.2071 67.3603 71.6673 67.5765 71.0856C67.6152 70.926 67.7129 70.7868 67.8498 70.6956C67.9867 70.6045 68.1531 70.5682 68.3155 70.5939C69.4686 70.6171 70.6186 70.4695 71.7283 70.1561C75.4354 69.1367 77.8568 65.4127 77.1358 61.8206C76.8989 60.8441 76.5855 59.8876 76.1985 58.9601C75.802 57.9227 75.808 57.9227 76.7152 57.323C76.9136 57.1911 77.1058 57.0471 77.316 56.9092C82.273 53.6349 81.2095 45.971 76.6432 43.7342ZM76.5711 54.8463C75.3694 56.0456 74.1677 56.2796 72.5875 55.5239C71.2259 54.8011 69.6839 54.4866 68.1473 54.6184C67.8357 54.6374 67.5283 54.7 67.234 54.8043C66.8134 54.9603 66.3329 55.1402 66.3448 55.7038C66.3568 56.2675 66.8375 56.4295 67.2581 56.5974C67.856 56.7737 68.4809 56.8408 69.1027 56.7952C69.9954 56.7752 70.8802 56.9676 71.6836 57.3565C72.4871 57.7455 73.1862 58.3199 73.7231 59.0321C74.3764 59.8536 74.8065 60.8293 74.9718 61.865C75.137 62.9008 75.0319 63.9616 74.6664 64.9449C73.7952 67.4816 70.767 69.0047 68.1052 68.3511C67.978 68.3195 67.8603 68.2577 67.762 68.1711C67.6636 68.0844 67.5877 67.9755 67.5405 67.8535C67.2401 67.2537 66.9877 66.5881 66.6693 65.9704C65.4316 63.5717 63.3767 62.3723 60.7631 62.0905C60.4283 62.0554 60.09 62.1028 59.7777 62.2284C59.3391 62.3963 58.9245 62.5342 59.0207 63.1579C59.1168 63.7816 59.3271 64.1594 59.958 64.2493C60.4566 64.3273 60.9614 64.3633 61.448 64.4892C62.627 64.7644 63.6729 65.4415 64.4055 66.4036C65.1381 67.3658 65.5116 68.553 65.4616 69.7604C65.4165 71.076 64.9178 72.3357 64.0497 73.3267C63.1816 74.3177 61.9973 74.9793 60.697 75.1995C57.1941 75.6613 55.0612 74.1021 54.2801 70.486C53.8419 68.0533 53.7087 65.5755 53.8835 63.1099C53.9196 61.8626 54.0036 60.6213 53.9917 59.3739C53.966 59.154 54.0214 58.9325 54.1474 58.7504C54.2735 58.5684 54.4616 58.4383 54.6766 58.3844C55.7491 57.9801 56.7602 57.4292 57.6808 56.7473C59.6696 55.2481 60.3785 53.1492 60.4266 50.7505C60.4585 50.5585 60.4248 50.3614 60.3312 50.1907C60.2375 50.02 60.0892 49.8855 59.9099 49.809C59.4583 49.6403 58.9663 49.611 58.4979 49.725C58.3236 49.767 58.3357 50.0489 58.2936 50.2288C58.1132 51.2171 57.8683 52.1927 57.5606 53.1492C57.3525 53.8147 56.9856 54.4199 56.4917 54.9129C55.9978 55.4058 55.3915 55.7719 54.7247 55.9797C54.1959 56.1656 53.9856 56.1296 53.9977 55.47C54.0457 52.5495 54.0457 49.6231 54.0518 46.6966C54.0518 43.2244 54.0518 39.7463 54.0518 36.1242C54.9035 36.7041 55.7905 37.2309 56.7074 37.7014C57.798 38.2765 59.0644 38.424 60.2584 38.1152C60.9373 37.9113 60.8592 37.5155 60.7932 37.0058C60.727 36.496 60.6489 36.0462 59.988 36.0403C59.5563 36.0514 59.1244 36.0294 58.6962 35.9743C57.4866 35.8058 56.371 35.2301 55.5339 34.3424C54.697 33.4546 54.1889 32.3082 54.0938 31.0929C54.0475 29.8249 54.4405 28.5797 55.2065 27.5671C55.9727 26.5545 57.065 25.8364 58.2997 25.5338C61.0395 24.7483 65.0831 26.3435 65.3415 30.4513C65.362 30.8809 65.4285 31.3071 65.5397 31.7226C65.786 32.5922 66.2427 32.856 67.1079 32.5802C68.5058 32.0437 70.0513 32.0309 71.4579 32.5441C72.202 32.8636 72.8721 33.3327 73.4262 33.9223C73.9804 34.5119 74.4066 35.2092 74.6784 35.9708C74.9503 36.7323 75.0618 37.5416 75.0059 38.3481C74.9501 39.1545 74.7281 39.9409 74.3539 40.6578C73.9465 41.3211 73.3944 41.8841 72.7388 42.305C72.0833 42.7259 71.341 42.9939 70.5673 43.0891C69.7935 43.1841 69.0084 43.1039 68.2701 42.8542C67.5318 42.6046 66.8593 42.1922 66.3028 41.6473C66.0565 41.3846 65.8277 41.1061 65.6178 40.8137C64.8668 39.8242 64.4702 39.7883 63.551 40.6399C63.1304 41.0356 63.3166 41.4494 63.551 41.8033C65.2093 44.124 67.3603 45.4733 70.3224 45.1914L72.8278 44.9516C75.2312 44.6937 77.8568 46.6187 78.2353 49.4732C78.4135 50.4344 78.355 51.4246 78.0651 52.3584C77.7752 53.2923 77.2626 54.1419 76.5711 54.8343V54.8463Z" fill="#2E8B58"/>
<path d="M49.6538 30.6196C49.4435 29.1743 49.1911 27.7111 48.1817 26.5537C47.2139 25.3464 45.9125 24.449 44.4386 23.9725C42.9649 23.496 41.3835 23.4615 39.8902 23.8731C36.7238 24.6347 34.8492 26.7636 34.2423 29.9718C34.1702 30.3677 34.02 30.4816 33.6415 30.4397C32.5899 30.3316 31.528 30.3863 30.4931 30.6015C26.6898 31.3811 24.3406 34.4275 24.6471 38.2175C24.796 39.7669 25.2021 41.2807 25.8486 42.6972C26.017 43.0869 25.9809 43.2248 25.5783 43.4288C24.3498 44.0035 23.2938 44.8897 22.5154 45.9987C21.737 47.1078 21.2633 48.401 21.1418 49.7498C21.0202 51.0985 21.2549 52.4554 21.8225 53.6853C22.39 54.9153 23.2707 55.9753 24.3767 56.7597C24.8292 57.113 25.3188 57.4166 25.8367 57.6652C26.2993 57.881 26.2692 58.085 26.035 58.4627C25.5742 59.2103 25.2183 60.0174 24.9774 60.8614C23.7758 65.0593 25.6804 69.0051 29.67 70.3724C30.9726 70.7991 32.3465 70.9662 33.7136 70.8641C34.02 70.8641 34.2243 70.8642 34.3145 71.266C35.0355 76.0994 39.4876 78.5102 43.7536 77.5807C46.7877 76.927 48.8547 75.1519 49.4674 71.9616C49.7464 70.4058 49.921 68.8331 49.9902 67.2541C50.2906 61.857 49.9902 56.5138 50.0564 51.1406C50.0564 49.0298 50.0263 46.9428 50.0564 44.814C50.0924 40.0945 50.3447 35.3391 49.6538 30.6196ZM41.4223 50.463C41.5184 50.7928 41.4223 51.2786 42.0232 51.3086C42.333 51.3566 42.65 51.2971 42.9212 51.1399C43.1924 50.9827 43.4014 50.7375 43.5132 50.445C43.5836 50.117 43.6298 49.7843 43.6514 49.4496C43.7141 48.4252 44.0847 47.4434 44.715 46.6325C45.3452 45.8216 46.2058 45.2193 47.1843 44.904C47.5688 44.754 47.7852 44.7181 47.7852 45.2698C47.7211 51.6464 47.689 58.033 47.689 64.4296C47.6777 64.5623 47.6596 64.6944 47.635 64.8254C46.9079 64.3696 46.2831 63.9738 45.6582 63.5901C44.374 62.8096 42.8418 62.5418 41.3682 62.8404C41.3037 62.8409 41.24 62.8549 41.1812 62.8813C41.1224 62.9079 41.0698 62.9464 41.0269 62.9944C40.9839 63.0424 40.9514 63.0989 40.9315 63.1602C40.9117 63.2214 40.9049 63.2861 40.9116 63.3502C40.8808 63.5225 40.885 63.6994 40.9239 63.8701C40.9629 64.0407 41.0358 64.2019 41.1383 64.344C41.2409 64.4861 41.371 64.6062 41.5209 64.6971C41.6708 64.7881 41.8375 64.848 42.0111 64.8733C42.4076 64.9753 42.8102 65.0412 43.2128 65.1252C44.5054 65.3274 45.6758 66.0038 46.4948 67.022C47.3139 68.0404 47.7226 69.3271 47.6409 70.6303C47.4886 71.9492 46.8792 73.1733 45.918 74.091C44.9569 75.0088 43.7045 75.5622 42.3776 75.6556C39.079 75.8296 37.0062 74.0545 36.4354 70.5583C36.3232 70.0703 36.2429 69.5755 36.1951 69.0771C36.1951 68.4175 35.7925 68.3396 35.2878 68.3995C34.7831 68.4595 34.0862 68.5374 33.4853 68.6454C32.0825 68.9755 30.6059 68.745 29.371 68.0032C28.1361 67.2615 27.2407 66.0672 26.8761 64.6754C26.5435 63.6803 26.5173 62.6084 26.8012 61.5982C27.085 60.5881 27.6657 59.686 28.4683 59.0085C30.2708 57.5573 32.2596 57.5932 34.2965 58.4088C34.9669 58.7478 35.5087 59.2949 35.8405 59.968C36.0044 60.2635 36.2538 60.5029 36.5561 60.6548C36.8583 60.8068 37.1994 60.8641 37.5349 60.8195C37.6878 60.8334 37.8403 60.7884 37.961 60.6935C38.0817 60.5988 38.1614 60.4614 38.1838 60.3098C38.2558 60.0438 38.2656 59.7649 38.2124 59.4946C38.1593 59.2243 38.0447 58.9698 37.8773 58.7506C37.2972 57.8639 36.5105 57.1306 35.5845 56.6137C34.6584 56.0968 33.6206 55.8114 32.56 55.7822C31.4814 55.7408 30.4013 55.7991 29.3335 55.9561C24.9655 56.5558 22.2076 52.3101 23.8299 48.1603C24.2513 47.0008 25.0681 46.0265 26.137 45.4077C26.4946 45.1913 26.8968 45.0589 27.3131 45.0204C27.7295 44.9819 28.1492 45.0385 28.5404 45.1858C29.9564 45.7716 31.4278 46.2136 32.9325 46.5051C34.1342 46.673 34.8372 46.2832 35.1375 45.3957C35.3298 44.796 35.1375 44.5142 34.5848 44.4122C33.5033 44.2084 32.4158 44.0524 31.3343 43.8125C27.7654 43.0869 25.8727 39.9626 26.8701 36.4664C27.1874 35.3899 27.833 34.4389 28.7172 33.7456C29.6012 33.0523 30.6799 32.6513 31.803 32.5985C33.9178 32.4966 33.8518 32.2088 34.7711 34.3496C35.8346 36.8203 37.7271 38.1455 40.2086 38.8232C40.6733 38.9576 41.1628 38.9821 41.6386 38.8951C41.9307 38.8512 42.1986 38.7078 42.3969 38.4892C42.5951 38.2705 42.7114 37.9903 42.7262 37.6958C42.8163 37.0421 42.2455 36.9941 41.8549 36.8442C41.2918 36.6416 40.7181 36.4695 40.1366 36.3286C36.7959 35.417 35.2877 32.2567 36.7298 29.0904C38.1718 25.924 41.4464 25.0245 44.2582 25.9901C45.6943 26.4817 46.5173 27.6272 47.0341 28.9885C47.6385 30.7631 47.9173 32.632 47.8572 34.5055C47.8572 36.8022 47.7731 39.105 47.707 41.4078C47.7191 41.6723 47.6433 41.9335 47.4911 42.1504C47.3389 42.3674 47.1191 42.528 46.8659 42.6072C44.2523 43.7046 42.1433 45.3537 41.3682 48.2562C41.1725 48.9816 41.1913 49.7481 41.4223 50.463Z" fill="#2E8B58"/>
</g>
<defs>
<clipPath id="clip0_592_1869">
<rect width="100" height="100" fill="white" transform="translate(0.686432 0.5)"/>
</clipPath>
</defs>
</svg>
