<svg width="752" height="757" viewBox="0 0 752 757" fill="none" xmlns="http://www.w3.org/2000/svg">
<path d="M641.471 111.196C494.099 -37.0653 257.901 -37.0653 110.529 111.196C-36.8429 259.457 -36.8429 497.082 110.529 645.343C257.901 793.604 494.099 793.604 641.471 645.343C788.843 497.082 788.843 257.426 641.471 111.196ZM122.642 633.157C-18.6738 490.989 -18.6738 261.488 122.642 119.32C124.66 117.289 126.679 115.258 128.698 115.258C308.37 -55.3441 556.682 200.559 379.028 379.285C221.562 537.701 395.179 765.171 566.776 685.963C427.479 773.295 241.75 755.016 122.642 633.157Z" fill="white"/>
<path d="M251.841 403.658C322.498 310.233 318.461 206.653 223.578 141.662C270.01 243.211 169.07 192.436 110.525 358.976C68.1305 545.826 247.803 690.026 377.006 704.243C241.747 687.995 179.164 497.083 251.841 403.658ZM165.033 531.61C130.713 462.556 175.127 401.627 175.127 401.627C175.127 401.627 160.995 472.711 185.22 533.641C209.446 592.539 235.69 625.034 235.69 625.034C235.69 625.034 199.352 600.663 165.033 531.61Z" fill="white"/>
</svg>
