<svg width="101" height="101" viewBox="0 0 101 101" fill="none" xmlns="http://www.w3.org/2000/svg">
<path d="M99.4729 75.8587C96.5661 75.889 93.6593 75.8587 90.7526 75.8587C90.3278 75.8587 90.1032 75.7799 90.1761 75.3075C90.2064 75.1393 90.2064 74.967 90.1761 74.7987C90.085 74.1931 90.2853 74.0235 90.9103 74.0295C93.6229 74.0659 96.3355 74.0295 99.0481 74.0295C100.262 74.0295 100.219 74.0295 100.262 72.8606C100.262 72.3033 100.11 72.1883 99.5761 72.1943C96.7906 72.1943 94.0052 72.1943 91.2198 72.1943C90.1821 72.1943 90.2246 72.1943 90.1639 71.1828C90.1639 70.5771 90.3338 70.4318 90.9285 70.4379C93.811 70.4742 96.6936 70.4379 99.5761 70.4379C99.7884 70.4379 100.183 70.5348 100.183 70.3531C100.28 69.8326 100.28 69.2988 100.183 68.7783C100.116 68.4815 99.6671 68.645 99.394 68.645C96.5358 68.645 93.6715 68.645 90.8132 68.645C90.3217 68.645 90.079 68.5421 90.1639 68.0394C90.1912 67.8953 90.1912 67.7474 90.1639 67.6033C90.0608 66.9976 90.3338 66.937 90.8497 66.9431C93.5865 66.9431 96.3112 66.9431 99.0602 66.9431C100.274 66.9431 100.207 66.9431 100.274 65.7317C100.274 65.1563 100.092 65.0594 99.57 65.0655C96.7846 65.0655 93.9992 65.0655 91.2138 65.0655C90.1943 65.0655 90.2307 65.0655 90.1882 64.0237C90.1882 63.4604 90.3156 63.2969 90.8982 63.3029C93.8292 63.3332 96.7603 63.3029 99.6974 63.3029C100.116 63.3029 100.347 63.2363 100.304 62.7579C100.271 62.5573 100.271 62.3527 100.304 62.1522C100.377 61.6313 100.207 61.4556 99.6428 61.4617C96.8574 61.498 94.072 61.4617 91.2866 61.4617C90.2307 61.4617 90.2307 61.4617 90.2307 60.3775C90.2337 60.3534 90.2337 60.329 90.2307 60.3049C90.1336 59.7658 90.3399 59.6144 90.8921 59.6204C93.629 59.6204 96.3537 59.6204 99.1088 59.6204C100.322 59.6204 100.274 59.6204 100.322 58.4575C100.322 57.9548 100.207 57.8094 99.7156 57.8155C96.8088 57.8155 93.9021 57.8155 90.9953 57.8518C90.2307 57.8518 90.2489 57.5127 90.2732 56.9918C90.2974 56.4709 90.1032 56.0348 90.9771 56.053C93.8839 56.1196 96.7967 56.053 99.7035 56.0893C100.201 56.0893 100.42 55.9621 100.31 55.4473C100.286 55.2786 100.286 55.1073 100.31 54.9385C100.401 54.3692 100.177 54.2178 99.6003 54.2238C96.7421 54.2238 93.8839 54.2238 91.0256 54.2238C90.4855 54.2238 90.2246 54.1875 90.2185 53.5152C90.2125 52.8429 90.5766 52.8429 91.056 52.849C93.9385 52.849 96.8271 52.849 99.7096 52.849C100.183 52.849 100.383 52.7278 100.316 52.2433C100.292 52.0745 100.292 51.9033 100.316 51.7345C100.413 51.1288 100.171 50.9774 99.57 50.9835C96.6814 51.0138 93.7989 50.9835 90.9164 51.0198C90.1882 51.0198 90.255 50.6685 90.2428 50.19C90.2307 49.7115 90.2428 49.3602 90.9346 49.3723C93.8414 49.4208 96.7482 49.3723 99.661 49.4087C100.219 49.4087 100.401 49.2512 100.316 48.7243C100.292 48.58 100.292 48.4325 100.316 48.2882C100.42 47.6825 100.146 47.5796 99.6003 47.5856C96.7178 47.5856 93.8353 47.5856 90.9528 47.5856C90.346 47.5856 90.2428 47.416 90.2307 46.8588C90.2185 46.3016 90.4127 46.1501 90.965 46.1562C93.896 46.1562 96.8271 46.1562 99.7581 46.1562C100.207 46.1562 100.365 46.0411 100.316 45.5929C100.289 45.4244 100.289 45.2527 100.316 45.0842C100.413 44.4785 100.177 44.321 99.57 44.3331C96.8089 44.3331 94.0477 44.3331 91.2866 44.3331C90.2428 44.3331 90.2914 44.3331 90.2307 43.3095C90.1943 42.6736 90.4188 42.5645 91.0014 42.5706C93.8353 42.5706 96.6754 42.5706 99.4972 42.5706C100.195 42.5706 100.395 42.3526 100.298 41.7166C100.286 41.6221 100.286 41.5264 100.298 41.4319C100.383 40.8807 100.195 40.699 99.6064 40.7051C96.7482 40.7051 93.8839 40.7051 91.0256 40.7414C90.3278 40.7414 90.1336 40.5234 90.2367 39.8935C90.2489 39.799 90.2489 39.7033 90.2367 39.6088C90.1457 39.0758 90.3338 38.9123 90.8921 38.9184C93.7989 38.9184 96.7118 38.9184 99.6185 38.9184C99.8249 38.9184 100.159 39.0213 100.225 38.8275C100.368 38.3122 100.368 37.768 100.225 37.2528C100.153 36.9136 99.7278 37.0892 99.4668 37.0892C96.7239 37.0892 94.0052 37.0892 91.2502 37.0892C90.2003 37.0892 90.2307 37.0892 90.1943 36.0051C90.1943 35.466 90.3156 35.3206 90.8679 35.3267C93.6047 35.3267 96.3294 35.3267 99.0845 35.3267C100.298 35.3267 100.238 35.3267 100.298 34.1698C100.298 33.5642 100.092 33.5157 99.5943 33.5157C96.6875 33.5157 93.7746 33.5157 90.8679 33.5157C89.9394 33.5157 90.261 32.9464 90.2246 32.5163C90.1882 32.0863 90.261 31.7592 90.8921 31.7713C93.8232 31.8077 96.7542 31.7713 99.6914 31.7713C100.159 31.7713 100.359 31.6563 100.298 31.1657C100.274 30.9969 100.274 30.8257 100.298 30.6569C100.395 30.0512 100.146 29.8998 99.5457 29.9059C96.6875 29.9059 93.8293 29.9059 90.971 29.9422C90.2367 29.9422 90.1882 29.6575 90.2307 29.1064C90.2732 28.5552 90.0668 28.1373 90.9467 28.1615C93.8293 28.2281 96.7118 28.1615 99.5943 28.1615C99.8067 28.1615 100.134 28.2766 100.201 28.0888C100.362 27.5826 100.381 27.0423 100.256 26.5262C100.201 26.2112 99.8006 26.3748 99.5578 26.3748C96.6511 26.3748 93.7443 26.3748 90.8375 26.3748C90.3824 26.3748 90.1457 26.29 90.2307 25.7691C90.2549 25.6268 90.2549 25.4814 90.2307 25.339C90.1336 24.7334 90.3278 24.5153 91.0014 24.5274C93.8839 24.5698 96.7664 24.5274 99.6489 24.5274C100.122 24.5274 100.335 24.4548 100.322 23.9218C100.322 22.7104 100.322 22.7104 99.1088 22.7104H98.0165C95.5891 22.7104 93.2163 22.7104 90.8193 22.7104C90.3399 22.7104 90.2125 22.5772 90.2125 22.1047C90.2125 20.9479 90.2125 20.9479 91.3351 20.9479C94.1205 20.9479 96.912 20.9479 99.6974 20.9479C100.171 20.9479 100.359 20.8267 100.304 20.3422C100.277 20.1737 100.277 20.0019 100.304 19.8334C100.401 19.2278 100.128 19.0824 99.5396 19.0884C96.6329 19.1187 93.7261 19.0884 90.8132 19.0884C90.3642 19.0884 90.2064 18.9612 90.1214 18.4827C89.3325 14.1219 86.3894 11.2146 82.0626 10.4818C81.4921 10.3909 81.4557 10.1668 81.4557 9.70041C81.4557 6.76893 81.4557 3.84353 81.4557 0.912048C81.4557 0.30637 81.2797 0.124646 80.7214 0.209441C80.6249 0.224537 80.5267 0.224537 80.4302 0.209441C79.8233 0.112532 79.5745 0.306348 79.5866 1.00288C79.6352 3.789 79.5866 6.57511 79.5866 9.36123C79.5866 10.3909 79.5866 10.3425 78.555 10.403C77.9057 10.4394 77.8147 10.1971 77.8207 9.62773C77.8207 6.69625 77.8207 3.76479 77.8207 0.833307C77.8207 0.645547 77.8207 0.318466 77.7601 0.288182C77.2504 0.142971 76.7129 0.124279 76.1944 0.233691C75.8485 0.282146 76.0123 0.681859 76.0123 0.918074C76.0123 3.84956 76.0123 6.78105 76.0123 9.71254C76.0123 10.2516 75.8728 10.4757 75.3205 10.3909C75.1759 10.3666 75.0282 10.3666 74.8836 10.3909C74.2768 10.4939 74.1736 10.2213 74.1797 9.67013C74.1797 6.90824 74.1797 4.14636 74.1797 1.39052C74.1797 0.179164 74.1797 0.227618 73.0145 0.179164C72.5169 0.179164 72.3592 0.294235 72.3652 0.815119C72.3652 3.64969 72.3652 6.48427 72.3652 9.29462C72.3652 10.506 72.5715 10.3061 71.279 10.3546C70.7692 10.3546 70.6236 10.2274 70.6236 9.71254C70.6236 6.92642 70.6236 4.14031 70.6236 1.36024C70.6236 0.148887 70.6236 0.191285 69.4524 0.148887C68.9123 0.148887 68.7666 0.276077 68.7727 0.827244C68.7727 3.78295 68.7727 6.73867 68.7727 9.69438C68.7727 9.90032 68.8819 10.2456 68.6574 10.3001C68.185 10.397 67.6977 10.397 67.2253 10.3001C66.9036 10.2274 67.0736 9.79128 67.0736 9.52478C67.0736 6.64175 67.0736 3.75874 67.0736 0.875709C67.0736 0.270031 66.9036 0.094369 66.3514 0.179164C66.231 0.200331 66.1077 0.200331 65.9873 0.179164C65.3805 0.0640851 65.2409 0.336629 65.2469 0.924137C65.2469 3.83139 65.247 6.73866 65.2834 9.64592C65.2834 10.4151 64.9314 10.3727 64.4156 10.3606C63.8998 10.3485 63.4689 10.4817 63.4871 9.63379C63.5539 6.68414 63.4871 3.72843 63.5235 0.772717C63.5235 0.294231 63.3961 0.100414 62.9167 0.167039C62.7476 0.190899 62.576 0.190899 62.4069 0.167039C61.8001 0.0701301 61.6484 0.324515 61.6544 0.924137C61.6909 3.7042 61.6544 6.49034 61.6544 9.27647C61.6544 10.3546 61.6544 10.3122 60.5864 10.3667C59.9371 10.403 59.846 10.1607 59.8521 9.59139C59.8825 6.65991 59.8521 3.72845 59.8521 0.796968C59.8521 0.282141 59.7125 0.0943809 59.2089 0.191289C59.0418 0.215478 58.8722 0.215478 58.7052 0.191289C58.0983 0.0883241 57.9952 0.372963 57.9952 0.918074C58.0255 3.67997 57.9952 6.44189 57.9952 9.19772C57.9952 10.4091 57.9952 10.4091 56.7269 10.3788C56.3385 10.3788 56.2111 10.2395 56.2414 9.87002C56.2717 9.50055 56.2414 9.26434 56.2414 8.92516C56.2414 6.2844 56.2414 3.64364 56.2414 1.00288C56.2414 0.342688 56.0836 0.136767 55.4161 0.179164C54.4269 0.239732 54.4269 0.179148 54.4269 1.18457C54.4269 4.04338 54.4269 6.90017 54.4269 9.75494C54.4269 9.95481 54.5362 10.2031 54.2874 10.3606C54.1606 10.4358 54.0161 10.476 53.8686 10.4771C53.7211 10.4782 53.576 10.4401 53.4482 10.3667C53.3203 10.2934 53.2143 10.1874 53.1411 10.0597C53.0678 9.93193 53.0299 9.78704 53.0312 9.63986C53.0312 6.68415 53.0312 3.72843 53.0312 0.77878C53.0312 0.348748 52.9523 0.130696 52.479 0.203378C52.3102 0.230636 52.1381 0.230636 51.9692 0.203378C51.3624 0.106469 51.1985 0.306351 51.2046 0.930199C51.2471 3.83746 51.2046 6.74473 51.241 9.65198C51.241 10.2577 51.059 10.4394 50.4703 10.397C49.9727 10.3546 49.5843 10.4575 49.5965 9.6762C49.6572 6.74471 49.5965 3.81322 49.5965 0.881735C49.5965 0.675804 49.7057 0.336624 49.5055 0.276056C48.9904 0.139964 48.4488 0.139964 47.9337 0.276056C47.5878 0.360851 47.7699 0.778781 47.7638 1.04528C47.7638 3.94648 47.7638 6.85374 47.7638 9.761C47.7638 9.9851 47.9337 10.3061 47.515 10.4091C46.7018 10.6029 46.4105 10.4091 46.4105 9.58533C46.4105 6.67807 46.4105 3.77085 46.4105 0.869646C46.4105 0.360876 46.2831 0.14889 45.7673 0.227629C45.6224 0.248842 45.4752 0.248842 45.3304 0.227629C44.6871 0.11255 44.5293 0.366921 44.5415 1.00894C44.5779 3.9162 44.5415 6.82347 44.5415 9.73072C44.5415 9.93665 44.6507 10.2577 44.4444 10.3364C43.9545 10.4756 43.4354 10.4756 42.9455 10.3364C42.6421 10.2698 42.7998 9.87003 42.7998 9.62171C42.7998 6.69628 42.7998 3.76479 42.7998 0.833307C42.7998 0.31848 42.6603 0.13072 42.1566 0.227629C42.012 0.251912 41.8643 0.251912 41.7197 0.227629C41.1128 0.118607 40.9732 0.385093 40.9793 0.972601C40.9793 3.90408 40.9793 6.83558 40.9793 9.76706C40.9793 10.2758 40.8458 10.4818 40.33 10.4091C40.1874 10.3849 40.0417 10.3849 39.8991 10.4091C39.2923 10.4999 39.1163 10.2879 39.1224 9.67013C39.1588 6.93247 39.1224 4.21903 39.1224 1.45714C39.1224 0.160985 39.1224 0.179163 37.7934 0.215503C37.3929 0.215503 37.3018 0.360882 37.32 0.724289C37.32 1.32997 37.32 1.93565 37.32 2.54132V9.37336C37.32 10.4151 37.32 10.3848 36.2884 10.4212C35.7362 10.4212 35.5481 10.3122 35.5541 9.7186C35.5905 6.90825 35.5541 4.09791 35.5541 1.28757C35.5541 0.233685 35.5541 0.27002 34.4618 0.221566C33.855 0.221566 33.685 0.34269 33.6911 0.966538C33.7275 3.89802 33.6911 6.82952 33.6911 9.761C33.6911 9.96087 33.8004 10.3122 33.5819 10.3667C33.1094 10.4636 32.6222 10.4636 32.1497 10.3667C31.8342 10.294 31.998 9.85789 31.998 9.58533C31.998 6.7023 31.998 3.82535 31.998 0.942325C31.998 0.336646 31.816 0.160985 31.2637 0.24578C31.1451 0.263446 31.0244 0.263446 30.9057 0.24578C30.2989 0.136758 30.1472 0.379048 30.1532 0.984727C30.1896 3.91621 30.1532 6.8477 30.1532 9.77313C30.1532 9.97906 30.2625 10.3304 30.044 10.3788C29.5695 10.4757 29.0803 10.4757 28.6058 10.3788C28.2174 10.288 28.4298 9.83973 28.4298 9.56112C28.4298 6.65386 28.4298 3.74663 28.4298 0.83937C28.4298 0.385111 28.3327 0.16101 27.8229 0.233691C27.6539 0.257551 27.4823 0.257551 27.3132 0.233691C26.7064 0.136783 26.5607 0.397224 26.5668 0.990789C26.5971 3.77691 26.5668 6.56302 26.5668 9.34308C26.5668 10.5544 26.7367 10.3546 25.4805 10.4272C24.8373 10.4636 24.7463 10.2213 24.7523 9.65198C24.7523 6.69627 24.7523 3.74055 24.7523 0.784842C24.7523 0.348754 24.6613 0.148879 24.2001 0.215503C23.9992 0.248389 23.7942 0.248389 23.5932 0.215503C23.0653 0.136765 22.8954 0.324511 22.9014 0.881735C22.9014 3.71631 22.9014 6.55088 22.9014 9.36123C22.9014 10.5726 23.0774 10.3425 21.8577 10.403C21.2812 10.4333 21.1295 10.2516 21.1355 9.68226C21.1659 6.92037 21.1355 4.15848 21.1355 1.39658C21.1355 0.185227 21.1355 0.245795 19.9583 0.185227C19.3878 0.185227 19.2907 0.360882 19.2968 0.875709C19.2968 3.78297 19.2968 6.6902 19.2968 9.59746C19.2968 10.2031 19.1269 10.4393 18.514 10.5423C16.5691 10.8849 14.7816 11.8297 13.4048 13.243C12.0281 14.6562 11.132 16.4661 10.8435 18.4161C10.7707 18.9067 10.5947 19.0218 10.1092 19.0218C7.22669 19.0218 4.34419 19.0218 1.46169 19.0218C0.399711 19.0218 0.436129 19.0218 0.387581 20.112C0.387581 20.7177 0.539286 20.8752 1.14006 20.8691C4.12573 20.8388 7.10533 20.8691 10.0849 20.8388C10.6007 20.8388 10.7889 20.9721 10.6918 21.4809C10.6676 21.6232 10.6676 21.7686 10.6918 21.9109C10.7949 22.5166 10.534 22.6195 9.98177 22.6135C7.00217 22.6135 4.02257 22.6135 1.04297 22.6135C0.836646 22.6135 0.47254 22.5105 0.43613 22.7043C0.345135 23.2253 0.345135 23.7581 0.43613 24.2791C0.502882 24.5759 0.945874 24.4245 1.21895 24.4245C4.1763 24.4245 7.13163 24.4245 10.0849 24.4245C10.5401 24.4245 10.7767 24.5092 10.6918 25.0301C10.6614 25.1984 10.6614 25.3707 10.6918 25.5389C10.8071 26.1446 10.5097 26.2779 9.93322 26.2718C6.97789 26.2415 4.02257 26.2718 1.06724 26.2718C0.854847 26.2718 0.533221 26.1567 0.460399 26.3626C0.315956 26.8491 0.301318 27.3648 0.417925 27.8587C0.478609 28.2524 0.903391 28.0585 1.15827 28.0646C4.11359 28.0646 7.06892 28.0646 10.0303 28.0646C10.5886 28.0646 10.7767 28.2221 10.6918 28.7551C10.6674 28.8994 10.6674 29.0468 10.6918 29.1912C10.7767 29.706 10.5583 29.8332 10.0546 29.7969C8.36149 29.7969 6.66234 29.7969 4.96925 29.7969H1.4799C0.381515 29.7969 0.411852 29.7968 0.375442 30.9234C0.375442 31.4867 0.496809 31.6563 1.08545 31.6502C4.06505 31.6199 7.04464 31.6502 10.0242 31.6502C10.2366 31.6502 10.5886 31.5472 10.6311 31.7411C10.7189 32.2155 10.7189 32.702 10.6311 33.1765C10.5583 33.5339 10.1335 33.3461 9.8786 33.3522C6.91721 33.3522 3.96188 33.3522 1.00655 33.3522C0.502875 33.3522 0.290487 33.4915 0.369377 34.0003C0.393594 34.1446 0.393594 34.292 0.369377 34.4363C0.266213 35.042 0.539293 35.1874 1.12793 35.1813C4.08326 35.1813 7.03858 35.1813 9.99391 35.1813C10.2063 35.1813 10.5643 35.0783 10.6007 35.26C10.6977 35.7551 10.71 36.263 10.6372 36.7622C10.5886 37.0832 10.182 36.9136 9.94536 36.9136C6.96576 36.9136 3.98615 36.9136 1.00655 36.9136C0.502875 36.9136 0.284413 37.0347 0.363302 37.5556C0.390668 37.6976 0.390668 37.8436 0.363302 37.9856C0.248002 38.6397 0.527148 38.7851 1.15827 38.779C4.08932 38.7427 7.02037 38.779 9.95142 38.779C10.5583 38.779 10.7767 38.9607 10.6736 39.5422C10.6645 39.6146 10.6645 39.6878 10.6736 39.7602C10.7767 40.3659 10.5825 40.6082 9.88467 40.6021C6.95362 40.5537 4.02257 40.6021 1.09152 40.6021C0.879126 40.6021 0.51502 40.6021 0.484678 40.6687C0.320132 41.1738 0.297049 41.7142 0.417925 42.2314C0.466473 42.5827 0.860918 42.4252 1.09759 42.4252C4.07718 42.4252 7.05678 42.4252 10.0364 42.4252C10.5219 42.4252 10.7707 42.51 10.6857 43.0309C10.6615 43.1732 10.6615 43.3186 10.6857 43.461C10.7767 44.0303 10.5583 44.1878 9.98177 44.1817C7.02644 44.1817 4.06505 44.1817 1.10973 44.1454C0.272282 44.1454 0.375442 44.5512 0.375442 45.072C0.375442 45.5929 0.278351 46.0109 1.10973 45.9927C4.08932 45.9321 7.06892 45.9927 10.0485 45.9927C10.2548 45.9927 10.5825 45.8715 10.6554 46.1078C10.7404 46.4846 10.7404 46.8756 10.6554 47.2525C10.5825 47.525 10.2306 47.3857 10.006 47.3857C7.05071 47.3857 4.09539 47.3857 1.14006 47.3857C0.533218 47.3857 0.302622 47.5614 0.405786 48.155C0.417912 48.2495 0.417912 48.3451 0.405786 48.4396C0.302622 49.0453 0.521081 49.2149 1.14006 49.2088C4.11966 49.1725 7.09927 49.2088 10.0789 49.1725C10.8799 49.1725 10.6857 49.6146 10.6857 50.0386C10.6857 50.4626 10.7343 50.826 10.0425 50.8199C7.2085 50.7715 4.37454 50.8199 1.54665 50.8199C0.375447 50.8199 0.399715 50.8199 0.375442 52.0313C0.375442 52.534 0.508946 52.6854 1.01869 52.6794C4.05291 52.6794 7.03251 52.6794 10.0364 52.6794C10.6007 52.6794 10.716 52.8368 10.7039 53.3638C10.6918 53.8907 10.6493 54.0785 10.0546 54.0724C7.2449 54.03 4.42915 54.0724 1.61947 54.0724C0.357238 54.0724 0.405787 54.0724 0.369377 55.3444C0.369377 55.8652 0.575702 55.95 1.01263 55.95C2.51153 55.95 4.01043 55.95 5.50934 55.95C7.00824 55.95 8.41611 55.95 9.87253 55.95C10.5097 55.95 10.7525 56.0772 10.7039 56.7677C10.6372 57.7125 10.7039 57.7186 9.73296 57.7186H1.44348C0.381507 57.7186 0.423992 57.7186 0.369377 58.7907C0.332966 59.4387 0.587836 59.5296 1.1522 59.5235C4.1318 59.5235 7.1114 59.5235 10.0971 59.5235C10.5765 59.5235 10.7039 59.6507 10.7039 60.1292C10.7039 61.3406 10.7039 61.3406 9.49023 61.3406H8.27654C5.84917 61.3406 3.4218 61.3406 0.994424 61.3406C0.533223 61.3406 0.308692 61.4375 0.387581 61.9462C0.417933 62.1145 0.417933 62.2868 0.387581 62.455C0.296555 63.0607 0.533219 63.1758 1.10365 63.1697C3.96188 63.1394 6.82011 63.1697 9.67834 63.1697C10.7039 63.1697 10.6554 63.1697 10.716 64.2054C10.7525 64.8535 10.5158 64.9383 9.94536 64.9322C6.96576 64.9322 3.98009 64.9322 1.00049 64.9322C0.527152 64.9322 0.326894 65.0594 0.393646 65.5379C0.420956 65.7064 0.420956 65.8782 0.393646 66.0467C0.296551 66.6524 0.557494 66.7977 1.1522 66.7917C4.10752 66.7917 7.06285 66.7917 10.0182 66.7917C10.7221 66.7917 10.7403 67.0824 10.7039 67.5972C10.6675 68.112 10.8678 68.5602 9.98783 68.5421C7.00823 68.4755 4.02864 68.5421 1.04904 68.5057C0.563563 68.5057 0.314757 68.6087 0.393646 69.1417C0.417881 69.3084 0.417881 69.4777 0.393646 69.6444C0.308688 70.1774 0.496807 70.341 1.0551 70.3349C4.0347 70.3046 7.01431 70.3349 9.99391 70.2986C10.7889 70.2986 10.71 70.668 10.6978 71.1586C10.6857 71.6492 10.8617 72.1095 9.98783 72.0853C7.03857 72.0187 4.07718 72.0853 1.12186 72.0429C0.515013 72.0429 0.290483 72.2246 0.393646 72.8121C0.41187 72.9082 0.41187 73.0068 0.393646 73.1029C0.278346 73.7449 0.539294 73.9084 1.17648 73.8963C4.10753 73.86 7.04465 73.8963 9.9757 73.866C10.5825 73.866 10.801 74.0477 10.7039 74.6291C10.6796 74.7491 10.6796 74.8727 10.7039 74.9926C10.8071 75.5982 10.5461 75.7012 9.99391 75.6951C7.13568 75.6951 4.27138 75.6951 1.41315 75.6951C0.387583 75.6951 0.436129 75.6951 0.369377 76.7248C0.332966 77.385 0.551431 77.5243 1.17648 77.5122C4.10753 77.5122 7.03858 77.5122 9.96963 77.5122C10.5765 77.5122 10.801 77.6939 10.7039 78.2814C10.6888 78.3777 10.6888 78.4758 10.7039 78.5721C10.7889 79.1172 10.6129 79.311 10.0182 79.2989C7.20849 79.2989 4.39881 79.2989 1.58913 79.2989C0.375442 79.2989 0.430058 79.2989 0.375442 80.5103C0.375442 81.116 0.569634 81.1705 1.07938 81.1644C4.1136 81.1644 7.08712 81.1644 10.091 81.1644C10.5583 81.1644 10.7585 81.2613 10.8313 81.7701C11.1176 83.7589 12.0344 85.604 13.4475 87.0351C14.8606 88.4661 16.6956 89.408 18.6839 89.7227C19.2118 89.8014 19.2907 90.0013 19.2907 90.4555C19.2907 93.2598 19.2907 96.0702 19.2907 98.8805C19.2907 100.092 19.2907 100.037 20.5044 100.056C21.0081 100.056 21.1659 99.9284 21.1598 99.4135C21.1598 96.5789 21.1598 93.7444 21.1598 90.934C21.1598 89.8862 21.1598 89.9286 22.1793 89.8801C22.7862 89.8801 22.9379 90.0376 22.9318 90.6433C22.9318 93.4718 22.9318 96.3064 22.9318 99.1228C22.9318 99.8556 23.0774 100.104 23.8603 100.092C24.6431 100.08 24.8798 99.9344 24.7584 99.1834C24.7311 98.8447 24.7311 98.5044 24.7584 98.1658V91.043C24.7584 89.9407 24.7584 89.977 25.8568 89.9346C26.4333 89.9346 26.585 90.08 26.5789 90.6493C26.5486 93.605 26.5789 96.5608 26.5789 99.5165C26.5789 99.9647 26.67 100.213 27.1858 100.122C27.3526 100.095 27.5227 100.095 27.6894 100.122C28.2963 100.237 28.4359 99.9465 28.4298 99.3651C28.3994 96.4336 28.4298 93.5021 28.4298 90.5706C28.4298 90.3707 28.3206 90.0194 28.539 89.9649C29.0383 89.871 29.5508 89.871 30.0501 89.9649C30.311 90.0315 30.1593 90.4919 30.1593 90.7644C30.1593 93.5021 30.1593 96.2155 30.1593 98.9774C30.1593 100.092 30.1593 100.062 31.2516 100.104C31.816 100.104 31.9859 99.9707 31.9798 99.3832C31.9798 96.482 31.9798 93.5748 31.9798 90.6675C31.9798 89.971 32.2104 89.8559 32.8051 89.8983C33.3027 89.9407 33.7457 89.7772 33.7275 90.6312C33.6608 93.5566 33.7275 96.4881 33.6911 99.4195C33.6911 99.9707 33.8428 100.177 34.3768 100.092C34.5215 100.068 34.6692 100.068 34.8138 100.092C35.4206 100.195 35.5663 99.9102 35.5602 99.3287C35.5298 96.4215 35.5602 93.5142 35.5238 90.6069C35.5238 89.8135 35.9061 89.9104 36.3916 89.9044C36.877 89.8983 37.3382 89.7953 37.32 90.6372C37.2533 93.5687 37.32 96.5002 37.2836 99.4256C37.2836 99.9768 37.4232 100.183 37.9694 100.098C38.1117 100.071 38.2579 100.071 38.4002 100.098C39.0071 100.201 39.1102 99.9102 39.1042 99.3711C39.1042 96.6092 39.1042 93.8473 39.1042 91.0854C39.1042 89.8741 39.1042 89.9347 40.2814 89.8741C40.8883 89.8741 40.949 90.08 40.9429 90.5827C40.9429 93.4173 40.9429 96.2519 40.9429 99.0622C40.9429 100.049 40.9429 100.049 41.9563 100.043H42.0291C42.5814 100.14 42.7634 99.9404 42.7574 99.3529C42.7209 96.5426 42.7574 93.7322 42.7574 90.9219C42.7574 89.862 42.7574 89.8922 43.8375 89.8559C44.3776 89.8559 44.5293 89.971 44.5233 90.5282C44.4929 93.4536 44.5233 96.3851 44.5233 99.3166C44.5233 99.5286 44.5233 99.8859 44.59 99.9223C45.0923 100.093 45.6326 100.121 46.1496 100.001C46.5198 99.9647 46.3559 99.571 46.3559 99.3408C46.3559 96.3851 46.3559 93.4294 46.3559 90.4737C46.3559 90.2678 46.1982 89.9831 46.5501 89.868C47.2844 89.6136 47.7092 89.9104 47.7092 90.6857C47.7092 93.5929 47.7092 96.4941 47.7092 99.4014C47.7092 99.9162 47.8548 100.116 48.3585 100.037C48.5034 100.016 48.6506 100.016 48.7954 100.037C49.469 100.165 49.5843 99.8617 49.5783 99.2439C49.5479 96.3367 49.5783 93.4294 49.5783 90.5221C49.5783 90.3101 49.4266 89.9528 49.73 89.9165C50.1543 89.8103 50.5983 89.8103 51.0226 89.9165C51.3503 90.0255 51.1682 90.4737 51.1682 90.7644C51.1682 93.6474 51.1682 96.5305 51.1682 99.4075C51.1682 99.9283 51.3199 100.116 51.8175 100.013C51.9138 99.995 52.0126 99.995 52.1088 100.013C52.7824 100.128 53.013 99.9041 53.0009 99.1773C52.9523 96.3427 53.0009 93.5082 52.9705 90.6978C52.9705 90.1648 52.9705 89.8135 53.7048 89.8317C54.4391 89.8499 54.3966 90.1466 54.3905 90.6615C54.3905 93.5627 54.3905 96.4699 54.3905 99.3771C54.3905 99.9283 54.5362 100.134 55.0763 100.043C55.2189 100.019 55.3645 100.019 55.5071 100.043C56.114 100.146 56.2171 99.8617 56.2111 99.3166C56.2111 96.5547 56.2111 93.7928 56.2111 91.0309C56.2111 89.8196 56.2111 89.8559 57.4247 89.8196C57.8617 89.8196 58.0316 89.9165 58.0316 90.3828C58.0316 90.8492 58.0316 91.3519 58.0316 91.8365C58.0316 94.3319 58.0316 96.8212 58.0316 99.3166C58.0316 99.8314 58.1226 100.11 58.6991 100.013C58.8417 99.989 58.9874 99.989 59.13 100.013C59.7368 100.116 59.8946 99.8738 59.8885 99.2681C59.8521 96.3609 59.8885 93.4536 59.8582 90.5524C59.8582 89.9165 60.0402 89.7348 60.6228 89.8317C60.7435 89.85 60.8662 89.85 60.9869 89.8317C61.5149 89.7408 61.6787 89.9286 61.6726 90.4858C61.6423 93.2719 61.6726 96.0581 61.6726 98.8442C61.6726 100.056 61.6726 99.9889 62.8863 100.056C63.4932 100.056 63.5539 99.8617 63.5478 99.3469C63.5478 96.4214 63.5478 93.49 63.5114 90.5585C63.5114 89.765 63.8876 89.8438 64.3792 89.8559C64.8707 89.868 65.3319 89.6984 65.3076 90.5706C65.2409 93.5203 65.3076 96.482 65.2712 99.4317C65.2712 99.9041 65.3926 100.104 65.8781 100.037C66.0449 100.01 66.215 100.01 66.3818 100.037C66.9886 100.134 67.1039 99.8738 67.0978 99.3166C67.0978 96.4093 67.0978 93.5021 67.0614 90.5948C67.0614 89.7832 67.4377 89.8498 67.9777 89.8438C68.5178 89.8377 68.8334 89.8438 68.8213 90.5827C68.7606 93.5081 68.8213 96.4396 68.7848 99.3711C68.7848 99.9283 68.9426 100.122 69.4706 100.037C69.6152 100.013 69.7629 100.013 69.9075 100.037C70.5144 100.146 70.6539 99.8496 70.6479 99.2681C70.6479 96.4638 70.6479 93.6535 70.6479 90.8432C70.6479 89.8498 70.6479 89.8922 71.6431 89.8438C72.2499 89.8438 72.4016 90.0073 72.3956 90.6069C72.3956 93.5384 72.3956 96.4699 72.3956 99.4014C72.3956 99.9102 72.5351 100.11 73.0449 100.037C73.2137 100.01 73.3858 100.01 73.5546 100.037C74.119 100.134 74.2282 99.8859 74.2222 99.359C74.2222 96.5729 74.2222 93.7868 74.2222 91.0006C74.2222 89.8377 74.2222 89.8559 75.4358 89.8438C75.897 89.8438 76.0427 89.9528 76.0427 90.4495C76.0427 91.6608 76.0427 92.9206 76.0427 94.1562V98.9471C76.0427 100.049 76.0427 100.019 77.1593 100.062C77.7236 100.062 77.8875 99.9283 77.8814 99.3529C77.8814 96.3972 77.8814 93.4415 77.8814 90.4858C77.8814 90.2859 77.7661 89.9407 77.9967 89.8801C78.4957 89.7831 79.0088 89.7831 79.5078 89.8801C79.7748 89.9467 79.617 90.401 79.6231 90.6796C79.6231 93.5808 79.6231 96.4881 79.6231 99.3953C79.6231 99.8557 79.7141 100.086 80.2299 100.001C80.3969 99.9768 80.5666 99.9768 80.7336 100.001C81.3404 100.098 81.4982 99.8435 81.4921 99.2439C81.4618 96.3185 81.4921 93.387 81.4921 90.4555C81.4921 89.9467 81.6014 89.759 82.1475 89.6924C84.0915 89.3996 85.8952 88.5079 87.3064 87.1417C88.7177 85.7755 89.6658 84.0034 90.0183 82.0729C90.1154 81.4188 90.3156 81.225 90.9953 81.2371C93.8778 81.2795 96.7603 81.2371 99.6489 81.2674C100.104 81.2674 100.322 81.1644 100.256 80.6617C100.225 80.4935 100.225 80.3212 100.256 80.1529C100.353 79.5472 100.092 79.3958 99.4972 79.4019C96.736 79.4382 93.9688 79.4019 91.2077 79.4019C90.1821 79.4019 90.2125 79.4019 90.1761 78.3601C90.1761 77.809 90.2914 77.6212 90.88 77.6273C93.7625 77.6636 96.6511 77.6273 99.5336 77.6273C100.14 77.6273 100.365 77.4516 100.262 76.8641C100.247 76.7678 100.247 76.6697 100.262 76.5734C100.389 75.9738 100.092 75.8526 99.4729 75.8587ZM88.3677 80.3467C88.3863 81.3805 88.1941 82.4073 87.8028 83.3647C87.4115 84.322 86.8291 85.1899 86.0912 85.9157C85.3533 86.6414 84.4753 87.2097 83.5104 87.5862C82.5456 87.9626 81.5141 88.1393 80.4787 88.1055H20.7957C19.7501 88.1409 18.7084 87.9615 17.7352 87.5784C16.762 87.1953 15.8781 86.6166 15.1383 85.8782C14.3986 85.1399 13.8187 84.2576 13.4349 83.2863C13.051 82.315 12.8712 81.2752 12.9067 80.2317C12.9067 70.2743 12.9067 60.319 12.9067 50.3657C12.9067 40.4123 12.9067 30.4812 12.9067 20.5723C12.853 18.8026 13.4176 17.0692 14.5036 15.6692C15.5897 14.2692 17.1297 13.2897 18.8599 12.8984C19.4959 12.7473 20.148 12.674 20.8018 12.6804H80.4848C81.5214 12.6516 82.5532 12.8327 83.5177 13.2129C84.4823 13.5931 85.3597 14.1643 86.097 14.8923C86.8342 15.6202 87.4161 16.4897 87.8074 17.4482C88.1987 18.4068 88.3914 19.4345 88.3737 20.4694C88.3899 40.4325 88.3879 60.3917 88.3677 80.3467Z" fill="currentColor"/>
<path d="M77.0564 15.1516H24.2065C23.5275 15.1418 22.8495 15.2089 22.1857 15.3515C20.2305 15.7506 18.4785 16.8239 17.2369 18.3832C15.9953 19.9425 15.3432 21.8883 15.3951 23.8794C15.3951 32.7223 15.3951 41.5632 15.3951 50.4021C15.3951 59.2409 15.3951 68.0556 15.3951 76.846C15.3951 81.9579 19.0908 85.6344 24.1943 85.6344H77.0382C82.1903 85.6344 85.9042 81.9579 85.9042 76.8218C85.9042 59.2127 85.9042 41.6056 85.9042 24.0006C85.9438 22.8294 85.7422 21.6625 85.3118 20.5722C84.8814 19.4819 84.2314 18.4914 83.402 17.6619C82.5727 16.8325 81.5816 16.1817 80.4901 15.7499C79.3986 15.3181 78.2299 15.1144 77.0564 15.1516ZM84.0654 76.6825C84.0654 81.0191 81.2193 83.8476 76.8683 83.8476H24.4128C20.0799 83.8476 17.2278 80.9888 17.2278 76.6582V23.9884C17.1689 22.364 17.7022 20.7734 18.7288 19.5115C19.7554 18.2496 21.2057 17.4021 22.8107 17.1261C23.3365 17.0442 23.869 17.0138 24.4006 17.0353H50.7133C59.464 17.0353 68.2086 17.1079 76.9532 17.0049C77.9004 16.9868 78.8415 17.1598 79.7201 17.5137C80.5986 17.8675 81.3965 18.3948 82.0658 19.0639C82.7351 19.7331 83.2621 20.5303 83.6151 21.4078C83.9681 22.2852 84.1399 23.2248 84.1201 24.1701C84.029 41.65 84.0715 59.1602 84.0654 76.6825Z" fill="currentColor"/>
<path d="M76.7163 43.6667C76.5039 43.5637 76.3158 43.3941 76.1094 43.2669C75.6786 43.0065 75.5026 42.7339 75.891 42.2433C76.1869 41.8041 76.4274 41.3301 76.6071 40.8321C78.4276 36.2713 76.4007 31.7833 71.7887 30.3115C70.6815 29.9496 69.518 29.7895 68.354 29.839C68.1669 29.8685 67.9754 29.8288 67.8156 29.7273C67.6558 29.6258 67.5386 29.4695 67.4862 29.2879C67.0978 28.3793 66.6488 27.4708 66.2361 26.5986C65.8592 25.7693 65.2957 25.0378 64.5895 24.4611C63.8833 23.8844 63.0533 23.478 62.1642 23.2735C60.9815 22.9385 59.7446 22.8376 58.5231 22.9767C57.0217 23.14 55.6083 23.7652 54.4787 24.7657C53.349 25.7662 52.559 27.0926 52.218 28.561C51.7727 30.6931 51.541 32.864 51.5262 35.0418C51.3563 40.396 51.6719 45.7381 51.5808 51.0923C51.5808 52.5398 51.5808 53.9935 51.5808 55.4471C51.508 60.1896 51.3199 64.9381 51.8175 69.6684C52.0117 71.5703 52.2909 73.4297 53.638 74.9802C57.4369 79.2987 64.719 78.4689 66.8308 73.0299C67.0553 72.4243 67.3406 71.8791 67.559 71.2916C67.5981 71.1304 67.6967 70.9898 67.835 70.8977C67.9733 70.8057 68.1413 70.769 68.3054 70.795C69.47 70.8184 70.6315 70.6693 71.7523 70.3528C75.4965 69.3232 77.9421 65.5619 77.2139 61.9339C76.9746 60.9477 76.6581 59.9816 76.2672 59.0448C75.8667 57.997 75.8728 57.997 76.7891 57.3913C76.9894 57.2581 77.1836 57.1127 77.3959 56.9734C82.4024 53.6664 81.3283 45.9258 76.7163 43.6667ZM76.6435 54.8899C75.4298 56.1012 74.2161 56.3375 72.6201 55.5743C71.2449 54.8442 69.6875 54.5266 68.1355 54.6597C67.8208 54.6789 67.5103 54.7421 67.2131 54.8475C66.7883 55.005 66.3029 55.1867 66.315 55.756C66.3271 56.3253 66.8126 56.4889 67.2374 56.6585C67.8413 56.8366 68.4724 56.9043 69.1004 56.8583C70.0021 56.8381 70.8957 57.0324 71.7072 57.4252C72.5187 57.8181 73.2248 58.3982 73.767 59.1175C74.4269 59.9472 74.8613 60.9327 75.0282 61.9788C75.1951 63.0249 75.0889 64.0963 74.7198 65.0895C73.8399 67.6515 70.7814 69.1899 68.093 68.5297C67.9645 68.4978 67.8456 68.4354 67.7463 68.3479C67.647 68.2604 67.5703 68.1504 67.5226 68.0271C67.2192 67.4214 66.9643 66.7491 66.6427 66.1252C65.3926 63.7025 63.3172 62.4911 60.6774 62.2065C60.3393 62.1711 59.9976 62.2189 59.6822 62.3458C59.2392 62.5154 58.8205 62.6547 58.9176 63.2846C59.0147 63.9145 59.2271 64.2961 59.8643 64.3869C60.3679 64.4657 60.8777 64.502 61.3692 64.6292C62.56 64.9072 63.6163 65.591 64.3563 66.5628C65.0962 67.5346 65.4734 68.7336 65.4229 69.9531C65.3774 71.2819 64.8737 72.5542 63.9969 73.5551C63.1201 74.556 61.924 75.2242 60.6107 75.4466C57.0728 75.913 54.9185 74.3382 54.1296 70.686C53.687 68.2289 53.5525 65.7264 53.7291 63.2361C53.7655 61.9763 53.8504 60.7226 53.8383 59.4628C53.8124 59.2407 53.8683 59.0169 53.9956 58.833C54.1229 58.6492 54.3129 58.5178 54.5301 58.4634C55.6133 58.055 56.6345 57.4986 57.5643 56.8099C59.573 55.2957 60.289 53.1758 60.3376 50.7531C60.3698 50.5592 60.3358 50.3601 60.2412 50.1877C60.1466 50.0153 59.9968 49.8795 59.8157 49.8022C59.3596 49.6318 58.8627 49.6022 58.3896 49.7174C58.2136 49.7598 58.2258 50.0445 58.1833 50.2262C58.001 51.2244 57.7537 52.2097 57.4429 53.1758C57.2327 53.848 56.8622 54.4592 56.3633 54.9571C55.8645 55.455 55.2521 55.8247 54.5787 56.0346C54.0446 56.2224 53.8322 56.186 53.8444 55.5198C53.8929 52.5701 53.8929 49.6144 53.899 46.6587C53.899 43.1518 53.899 39.6389 53.899 35.9806C54.7593 36.5663 55.6551 37.0983 56.5812 37.5735C57.6827 38.1544 58.9618 38.3034 60.1677 37.9915C60.8534 37.7855 60.7745 37.3858 60.7078 36.871C60.641 36.3561 60.5621 35.9018 59.8946 35.8958C59.4586 35.907 59.0224 35.8848 58.5899 35.8292C57.3682 35.659 56.2414 35.0775 55.396 34.1809C54.5507 33.2843 54.0375 32.1264 53.9415 30.8989C53.8947 29.6183 54.2916 28.3606 55.0653 27.3379C55.8391 26.3152 56.9424 25.5899 58.1894 25.2843C60.9566 24.4909 65.0406 26.102 65.3016 30.2509C65.3223 30.6848 65.3895 31.1153 65.5018 31.5349C65.7506 32.4132 66.2118 32.6797 67.0857 32.4011C68.4976 31.8592 70.0585 31.8463 71.4792 32.3647C72.2307 32.6873 72.9075 33.1611 73.4672 33.7566C74.0269 34.3521 74.4574 35.0564 74.7319 35.8256C75.0065 36.5947 75.1191 37.4121 75.0627 38.2267C75.0063 39.0412 74.7821 39.8354 74.4042 40.5595C73.9927 41.2294 73.4351 41.7981 72.7729 42.2232C72.1108 42.6483 71.3611 42.919 70.5797 43.0151C69.7982 43.1111 69.0052 43.03 68.2595 42.7779C67.5138 42.5258 66.8346 42.1092 66.2725 41.5589C66.0238 41.2936 65.7927 41.0123 65.5807 40.717C64.8222 39.7176 64.4216 39.6813 63.4932 40.5414C63.0684 40.9411 63.2565 41.359 63.4932 41.7164C65.1681 44.0604 67.3406 45.4231 70.3323 45.1384L72.8628 44.8962C75.2902 44.6358 77.9421 46.58 78.3244 49.463C78.5043 50.4339 78.4453 51.434 78.1525 52.3771C77.8597 53.3203 77.3419 54.1784 76.6435 54.8778V54.8899Z" fill="currentColor"/>
<path d="M49.457 30.4206C49.2446 28.9609 48.9897 27.4831 47.9702 26.3141C46.9927 25.0947 45.6783 24.1883 44.1897 23.7071C42.7012 23.2258 41.104 23.191 39.5958 23.6067C36.3977 24.3759 34.5044 26.5261 33.8914 29.7664C33.8186 30.1662 33.6669 30.2813 33.2846 30.2389C32.2225 30.1298 31.15 30.185 30.1047 30.4024C26.2634 31.1898 23.8907 34.2666 24.2002 38.0945C24.3506 39.6594 24.7608 41.1884 25.4138 42.619C25.5838 43.0126 25.5474 43.1519 25.1408 43.3579C23.9 43.9384 22.8334 44.8334 22.0472 45.9535C21.261 47.0737 20.7826 48.3799 20.6599 49.7421C20.5371 51.1043 20.7741 52.4748 21.3474 53.717C21.9206 54.9593 22.8101 56.0299 23.9271 56.8221C24.3842 57.179 24.8787 57.4856 25.4017 57.7367C25.869 57.9547 25.8386 58.1607 25.602 58.5422C25.1366 59.2972 24.7772 60.1124 24.5339 60.9649C23.3202 65.2047 25.2439 69.19 29.2734 70.571C30.589 71.0019 31.9766 71.1707 33.3574 71.0676C33.6669 71.0676 33.8732 71.0677 33.9643 71.4735C34.6925 76.3552 39.1892 78.7901 43.4978 77.8513C46.5623 77.1911 48.6499 75.3983 49.2688 72.1761C49.5505 70.6047 49.7269 69.0163 49.7968 67.4215C50.1002 61.9704 49.7968 56.5738 49.8636 51.1469C49.8636 49.0149 49.8332 46.9071 49.8636 44.757C49.9 39.9903 50.1548 35.1873 49.457 30.4206ZM41.1432 50.4625C41.2403 50.7956 41.1432 51.2862 41.7501 51.3165C42.063 51.365 42.3832 51.3049 42.6571 51.1461C42.931 50.9874 43.1421 50.7397 43.255 50.4443C43.3261 50.113 43.3728 49.777 43.3946 49.4389C43.4579 48.4043 43.8322 47.4127 44.4688 46.5937C45.1053 45.7747 45.9745 45.1663 46.9628 44.8479C47.3512 44.6964 47.5697 44.6601 47.5697 45.2173C47.505 51.6577 47.4726 58.1082 47.4726 64.5687C47.4612 64.7028 47.4429 64.8362 47.418 64.9685C46.6837 64.5081 46.0526 64.1084 45.4215 63.7208C44.1244 62.9325 42.5769 62.6621 41.0886 62.9637C41.0234 62.9642 40.9591 62.9783 40.8997 63.005C40.8403 63.0318 40.7872 63.0707 40.7438 63.1192C40.7004 63.1677 40.6676 63.2247 40.6475 63.2866C40.6275 63.3485 40.6206 63.4138 40.6274 63.4785C40.5963 63.6526 40.6005 63.8312 40.6398 64.0036C40.6792 64.176 40.7528 64.3388 40.8564 64.4823C40.96 64.6258 41.0914 64.7471 41.2428 64.8389C41.3942 64.9308 41.5626 64.9913 41.7379 65.0169C42.1384 65.1199 42.545 65.1865 42.9516 65.2713C44.2571 65.4755 45.4392 66.1587 46.2664 67.1871C47.0937 68.2156 47.5065 69.5152 47.424 70.8315C47.2702 72.1635 46.6547 73.3999 45.6839 74.3268C44.7131 75.2537 43.4482 75.8127 42.1081 75.907C38.7765 76.0827 36.6829 74.2899 36.1064 70.7587C35.9931 70.2659 35.912 69.7661 35.8637 69.2627C35.8637 68.5965 35.4571 68.5178 34.9474 68.5783C34.4376 68.6389 33.7337 68.7176 33.1268 68.8267C31.71 69.1601 30.2186 68.9273 28.9714 68.1781C27.7241 67.429 26.8198 66.2227 26.4515 64.817C26.1156 63.8119 26.0892 62.7293 26.3759 61.709C26.6625 60.6888 27.249 59.7777 28.0597 59.0934C29.8802 57.6277 31.8889 57.664 33.9461 58.4877C34.6232 58.8301 35.1705 59.3827 35.5056 60.0625C35.6711 60.361 35.923 60.6028 36.2283 60.7562C36.5336 60.9097 36.8781 60.9676 37.2169 60.9225C37.3714 60.9366 37.5254 60.8911 37.6473 60.7953C37.7692 60.6996 37.8497 60.5609 37.8723 60.4077C37.945 60.1391 37.9549 59.8574 37.9012 59.5844C37.8476 59.3114 37.7318 59.0543 37.5628 58.833C36.9769 57.9374 36.1823 57.1968 35.247 56.6747C34.3117 56.1526 33.2635 55.8644 32.1923 55.8349C31.1029 55.7931 30.012 55.8519 28.9335 56.0105C24.5218 56.6162 21.7364 52.328 23.3749 48.1367C23.8005 46.9657 24.6255 45.9816 25.7051 45.3566C26.0662 45.1381 26.4724 45.0043 26.8929 44.9654C27.3135 44.9266 27.7374 44.9837 28.1325 45.1325C29.5626 45.7242 31.0488 46.1706 32.5685 46.465C33.7822 46.6346 34.4922 46.2409 34.7956 45.3445C34.9898 44.7388 34.7956 44.4542 34.2373 44.3512C33.145 44.1453 32.0466 43.9878 30.9543 43.7455C27.3497 43.0126 25.4381 39.8571 26.4455 36.3259C26.766 35.2386 27.418 34.2781 28.311 33.5779C29.2039 32.8777 30.2934 32.4727 31.4277 32.4193C33.5637 32.3164 33.497 32.0257 34.4255 34.1879C35.4996 36.6833 37.4111 38.0218 39.9174 38.7063C40.3867 38.842 40.8811 38.8668 41.3617 38.7789C41.6567 38.7346 41.9273 38.5897 42.1275 38.3689C42.3277 38.1481 42.4452 37.865 42.4601 37.5676C42.5511 36.9074 41.9746 36.8589 41.5801 36.7075C41.0114 36.5029 40.432 36.329 39.8446 36.1867C36.4705 35.266 34.9473 32.0741 36.4038 28.8761C37.8602 25.6781 41.1675 24.7696 44.0075 25.7448C45.4579 26.2414 46.2892 27.3983 46.8111 28.7732C47.4216 30.5656 47.7032 32.4532 47.6425 34.3454C47.6425 36.6651 47.5575 38.9909 47.4908 41.3167C47.503 41.5839 47.4264 41.8477 47.2727 42.0668C47.119 42.2859 46.897 42.4481 46.6412 42.5281C44.0015 43.6365 41.8714 45.3021 41.0886 48.2336C40.8909 48.9663 40.9099 49.7404 41.1432 50.4625Z" fill="currentColor"/>
</svg>
